<svg xmlns="http://www.w3.org/2000/svg" viewBox="0 0 1600 430" role="img" aria-label="Navigate Wealth monochrome logo with tagline">
  <g transform="translate(34 18) scale(0.46)">
    <path d="M52 26C120 74 177 151 192 247C205 332 187 414 148 491C124 539 95 582 66 619C132 580 197 548 262 533C309 522 353 525 391 544C372 456 338 367 290 286C233 191 153 99 52 26Z" fill="#151515"/>
    <path d="M206 92C277 152 337 227 381 313C413 377 431 444 428 507C394 444 356 385 314 329C276 277 239 198 206 92Z" fill="#151515"/>
    <path d="M8 576C126 534 263 511 442 500C592 491 721 497 835 516C796 559 759 602 721 648C697 678 661 699 627 700C652 669 675 638 689 603C700 575 692 566 660 565C503 564 281 572 8 576Z" fill="#151515"/>
  </g>

  <text x="492" y="202" font-family="'Times New Roman', Georgia, serif" font-size="100" font-weight="700" letter-spacing="0.2">
    <tspan fill="#151515">Navigate</tspan>
    <tspan dx="0" fill="#151515">Wealth</tspan>
  </text>
  <line x1="492" y1="244" x2="1232" y2="244" stroke="#151515" stroke-width="6" stroke-linecap="round"/>
  <text x="864" y="316" text-anchor="middle" fill="#151515" font-family="Arial, Helvetica, sans-serif" font-size="34" font-weight="600" letter-spacing="7.2">
    INDEPENDENT FINANCIAL ADVISORY SERVICES
  </text>
</svg>
