<?xml version="1.0" encoding="UTF-8"?>
<svg xmlns="http://www.w3.org/2000/svg" width="782" height="1058" viewBox="0 0 782 1058" fill="none" shape-rendering="geometricPrecision">
  <defs><linearGradient id="navigateWealthIconGradient" x1="23%" y1="8%" x2="78%" y2="88%">
      <stop offset="0%" stop-color="#9859d9" />
      <stop offset="55%" stop-color="#8d43d6" />
      <stop offset="100%" stop-color="#6220b7" />
    </linearGradient></defs>
  <path d="M153.69 140.29 L154.69 139.93 L156.19 140.30 L161.85 145.02 L165.13 146.34 L168.64 149.40 L169.77 150.91 L171.64 152.37 L173.16 154.10 L175.70 155.39 L177.52 156.89 L179.95 158.27 L185.36 163.31 L187.13 164.39 L188.63 166.00 L195.05 170.59 L196.93 172.28 L198.82 173.38 L206.74 181.19 L219.81 191.60 L227.13 199.14 L232.01 203.41 L233.40 205.18 L238.49 209.71 L245.84 217.24 L248.21 218.76 L250.11 220.52 L264.54 234.97 L270.48 240.50 L278.79 250.56 L286.32 258.12 L290.91 264.77 L294.06 268.55 L304.43 279.58 L305.90 282.50 L308.96 286.56 L316.39 294.19 L318.01 296.88 L322.53 302.29 L323.95 304.76 L326.94 308.15 L328.68 309.66 L330.08 312.28 L331.97 314.66 L332.95 316.45 L334.62 317.95 L337.64 321.73 L339.45 325.13 L346.63 334.18 L351.08 341.34 L352.86 343.23 L357.14 350.40 L358.98 352.66 L359.96 355.30 L361.77 357.32 L363.27 360.13 L365.04 362.47 L366.09 364.73 L368.09 367.00 L369.20 370.39 L370.82 372.21 L371.95 374.41 L373.76 376.80 L375.32 380.19 L377.24 382.07 L378.37 385.08 L380.01 387.37 L381.13 389.63 L382.92 391.51 L384.22 394.90 L386.12 397.17 L387.42 400.44 L388.78 402.08 L390.25 405.09 L391.91 407.35 L393.08 410.38 L395.18 413.39 L396.09 416.12 L398.02 418.29 L399.11 421.81 L401.37 424.65 L402.31 427.72 L404.33 430.37 L405.44 433.76 L407.04 435.64 L408.51 439.03 L410.26 441.68 L411.22 443.95 L413.16 446.58 L414.43 450.35 L416.08 452.66 L417.24 456.01 L419.48 459.73 L420.50 462.80 L422.24 465.45 L423.48 469.59 L425.44 472.24 L426.49 476.00 L428.67 479.02 L429.43 482.42 L431.43 485.06 L432.40 488.82 L434.09 490.71 L435.43 494.87 L437.40 497.50 L438.32 500.90 L440.61 505.00 L441.56 509.19 L443.47 512.59 L444.49 516.37 L446.53 519.76 L447.81 523.90 L449.66 526.46 L450.40 530.46 L452.42 533.34 L453.43 537.38 L455.73 541.64 L456.49 545.40 L458.62 548.43 L459.37 552.58 L461.37 555.97 L462.48 561.27 L464.64 565.03 L465.94 569.93 L467.56 572.19 L468.61 577.09 L470.63 580.48 L471.53 584.52 L473.75 588.79 L474.76 593.69 L476.74 596.71 L477.56 602.06 L479.57 605.76 L480.78 611.42 L482.72 614.82 L483.73 620.09 L485.87 623.76 L486.71 629.90 L488.66 633.67 L489.61 639.33 L491.90 643.65 L492.85 649.51 L494.88 653.66 L495.67 660.59 L497.71 664.61 L498.76 671.77 L500.52 675.54 L501.00 677.43 L501.90 684.22 L504.05 689.50 L505.02 697.80 L506.96 702.32 L507.77 710.62 L509.83 715.53 L510.71 721.19 L512.44 724.95 L512.28 726.09 L511.51 727.05 L508.87 727.95 L493.41 728.12 L482.85 730.25 L465.12 731.31 L462.11 731.89 L456.45 733.62 L445.79 734.38 L444.00 734.87 L440.22 736.59 L433.43 737.46 L429.66 739.37 L421.74 740.36 L417.59 742.63 L412.69 743.49 L408.16 745.54 L403.26 746.27 L399.48 748.22 L397.60 748.85 L391.95 749.74 L388.17 751.85 L382.51 752.53 L379.11 754.72 L375.13 755.51 L371.19 757.63 L367.05 758.94 L364.03 760.50 L359.06 761.54 L355.35 763.68 L350.82 764.61 L347.06 766.69 L342.53 767.93 L340.27 769.57 L335.74 770.67 L333.10 772.40 L328.60 773.99 L325.53 775.88 L321.79 776.74 L318.48 778.90 L314.94 779.64 L312.35 781.41 L308.21 782.89 L305.19 784.82 L301.42 785.86 L298.10 787.95 L294.64 789.08 L291.98 790.76 L288.59 791.83 L285.95 793.82 L282.18 795.00 L279.56 797.00 L276.14 797.91 L273.88 799.75 L269.35 800.71 L265.95 802.89 L261.81 804.14 L259.55 805.82 L255.77 806.95 L252.76 808.99 L249.74 810.20 L246.72 811.96 L243.71 813.08 L241.06 814.97 L237.67 816.04 L235.19 817.75 L232.64 818.88 L229.74 820.71 L225.60 822.19 L223.11 824.16 L219.19 824.98 L216.16 827.15 L213.46 827.93 L210.51 830.01 L206.78 831.32 L204.85 832.99 L202.76 833.96 L200.71 835.52 L198.05 836.61 L196.18 838.57 L195.05 839.12 L194.29 838.83 L193.70 837.74 L193.60 836.22 L193.96 834.72 L196.18 831.78 L197.31 828.35 L202.03 821.90 L203.42 818.50 L205.23 815.67 L206.26 812.46 L207.87 809.96 L209.36 805.30 L211.27 802.64 L212.40 799.01 L214.29 796.69 L215.37 793.61 L216.98 791.35 L218.43 787.54 L220.14 784.93 L221.26 780.78 L223.28 778.14 L224.13 773.99 L226.20 770.59 L227.32 765.69 L229.21 762.67 L230.15 758.90 L232.39 754.44 L233.14 749.40 L235.40 744.95 L236.26 740.42 L238.64 735.90 L239.31 731.74 L241.44 727.61 L242.46 721.19 L244.43 717.03 L245.20 711.38 L247.57 706.48 L248.34 699.69 L250.49 695.16 L251.32 687.24 L253.15 683.09 L254.49 673.66 L256.54 668.00 L257.58 658.95 L259.62 654.04 L260.34 643.85 L262.06 638.95 L262.62 636.32 L263.30 621.98 L265.11 611.42 L265.69 606.14 L266.60 583.13 L267.97 568.42 L268.12 548.05 L266.95 533.34 L265.75 497.13 L265.15 492.98 L263.69 487.41 L262.27 465.45 L260.34 457.90 L259.55 446.62 L257.68 439.79 L256.69 426.97 L254.20 418.67 L253.44 408.48 L251.40 403.58 L250.37 395.66 L248.32 390.76 L247.50 382.84 L245.31 377.93 L244.27 371.14 L242.26 367.00 L241.29 359.45 L239.50 355.30 L238.07 347.38 L236.18 343.61 L235.48 337.58 L233.16 332.29 L232.44 326.63 L230.16 322.48 L229.37 317.80 L227.22 313.05 L226.28 308.15 L224.10 304.37 L223.34 298.37 L221.21 294.95 L220.17 289.66 L218.05 285.36 L217.13 280.24 L215.03 276.87 L214.34 273.07 L212.40 269.84 L211.16 264.40 L209.25 261.37 L208.06 256.85 L206.14 253.84 L205.26 249.31 L203.28 245.92 L202.13 240.63 L200.02 237.61 L199.11 234.22 L196.98 231.21 L196.31 227.43 L194.17 223.66 L193.16 219.11 L191.27 216.51 L189.79 212.34 L188.14 210.08 L187.30 207.06 L185.24 203.95 L184.10 200.27 L182.22 197.56 L180.71 193.05 L179.08 190.84 L178.08 188.28 L176.32 185.94 L174.92 182.16 L173.12 179.90 L171.82 176.13 L170.04 173.87 L169.02 170.76 L166.97 167.84 L166.00 164.77 L163.92 162.55 L162.78 158.78 L160.72 156.18 L160.12 153.13 L157.81 150.10 L156.91 146.71 L154.69 143.98 L153.68 141.42 L153.69 140.29 Z M339.43 278.35 L340.27 278.13 L341.02 278.36 L343.29 280.40 L346.30 281.90 L355.07 289.66 L358.75 292.48 L361.39 294.03 L372.71 304.93 L379.11 309.57 L385.54 315.32 L387.04 317.08 L391.78 320.98 L396.14 325.87 L401.18 330.40 L405.53 335.11 L406.93 336.06 L413.28 342.10 L414.78 343.98 L416.47 345.11 L419.48 347.92 L423.88 353.03 L425.35 354.16 L432.84 362.09 L437.18 365.87 L444.44 373.79 L449.27 378.46 L450.79 380.50 L452.29 381.65 L456.81 386.61 L464.62 394.16 L466.12 396.79 L468.90 400.15 L474.99 407.35 L476.43 408.56 L477.94 410.74 L482.47 415.41 L487.00 421.65 L492.82 428.48 L494.54 430.06 L496.05 432.56 L497.56 434.29 L498.81 436.77 L503.94 442.81 L505.11 445.58 L512.64 454.88 L513.90 458.27 L515.88 460.53 L518.61 464.69 L520.10 467.71 L522.08 469.90 L523.21 472.73 L527.94 479.40 L529.05 482.42 L531.13 484.90 L532.26 487.98 L533.77 489.71 L534.90 491.89 L536.84 494.48 L538.02 497.88 L540.00 500.14 L541.10 503.92 L543.03 506.18 L543.76 509.19 L546.09 511.84 L547.34 515.61 L549.24 517.86 L549.99 521.49 L552.17 524.29 L552.79 527.68 L554.94 531.08 L556.38 535.98 L558.29 538.83 L559.17 542.77 L561.10 545.79 L562.15 551.45 L564.02 554.08 L565.27 559.37 L567.34 563.11 L568.18 569.17 L570.12 572.56 L571.16 579.35 L573.35 584.64 L574.37 594.06 L576.40 599.38 L577.09 612.93 L577.53 615.28 L578.86 619.34 L579.52 623.87 L579.72 645.74 L579.25 657.82 L578.81 660.45 L577.43 664.61 L576.87 668.75 L576.51 675.92 L575.50 680.82 L574.08 684.59 L573.43 690.25 L571.27 694.03 L570.24 699.30 L568.09 702.35 L567.30 706.48 L565.45 709.24 L563.96 714.01 L562.06 716.39 L560.93 719.95 L559.04 722.86 L558.04 726.46 L556.40 728.90 L554.86 732.50 L553.21 734.38 L550.16 738.91 L549.00 742.30 L547.34 743.82 L542.80 750.98 L541.01 752.49 L537.16 756.81 L536.41 757.25 L535.27 756.92 L534.73 755.51 L534.04 738.16 L531.99 728.72 L531.21 714.01 L529.14 706.85 L528.18 689.88 L525.95 683.09 L525.14 671.40 L522.89 664.98 L522.06 654.42 L519.98 648.38 L519.23 641.59 L516.80 635.45 L515.96 626.51 L513.88 621.98 L513.13 614.82 L510.93 609.91 L509.69 603.12 L507.84 599.72 L506.96 593.69 L504.78 589.54 L503.97 584.16 L501.79 580.48 L501.09 575.58 L498.78 571.06 L497.75 565.40 L495.62 561.63 L494.76 555.22 L492.86 552.19 L491.63 547.29 L489.72 544.27 L488.62 539.37 L486.62 536.68 L485.98 532.96 L483.96 529.56 L482.85 525.11 L480.63 521.27 L479.59 517.11 L477.94 514.48 L476.59 510.32 L474.84 507.69 L473.52 503.54 L471.59 500.53 L470.63 496.75 L468.53 494.11 L467.68 490.34 L465.78 488.08 L464.63 483.92 L462.85 481.27 L461.54 477.51 L459.68 474.50 L458.59 470.72 L456.76 468.08 L455.36 463.93 L453.51 461.67 L452.28 457.90 L450.40 455.36 L449.64 451.87 L447.52 449.22 L446.40 445.82 L444.49 443.56 L443.25 440.17 L441.35 437.56 L440.50 435.27 L438.85 433.00 L437.21 429.40 L435.69 427.64 L434.48 424.32 L432.54 422.06 L431.42 418.67 L429.45 416.40 L428.16 412.66 L426.34 410.37 L425.25 408.11 L423.63 406.00 L422.19 402.82 L420.36 400.94 L419.11 397.66 L417.59 395.93 L415.99 393.02 L414.35 391.13 L413.19 388.50 L411.56 386.68 L410.00 383.97 L408.59 382.45 L407.11 379.06 L405.53 377.40 L404.16 374.92 L402.53 373.03 L401.29 370.39 L399.11 367.80 L395.01 360.95 L393.83 359.79 L391.99 356.81 L390.61 355.30 L388.93 352.01 L387.42 350.45 L386.01 348.13 L384.38 346.63 L382.71 343.23 L377.98 337.76 L376.93 335.69 L371.07 327.39 L369.01 325.50 L367.80 323.03 L365.05 318.71 L362.94 316.82 L360.31 313.43 L358.75 310.10 L353.91 304.00 L351.01 299.85 L349.84 297.59 L348.07 295.71 L346.94 293.44 L345.17 290.97 L344.04 288.35 L342.16 286.36 L340.64 283.62 L338.85 281.37 L338.56 279.86 L339.43 278.35 Z M674.00 764.56 L680.88 764.55 L685.40 765.14 L695.59 764.81 L696.35 765.02 L697.02 765.69 L697.56 767.96 L696.72 769.43 L694.83 770.60 L685.19 779.64 L677.69 787.19 L662.40 801.11 L642.48 821.51 L638.31 825.29 L630.59 833.21 L622.79 840.39 L621.28 842.23 L613.35 849.41 L609.59 853.59 L607.32 855.47 L596.77 866.02 L588.84 872.71 L583.55 878.09 L577.54 882.62 L576.31 884.14 L572.92 887.15 L570.74 888.56 L569.08 890.17 L566.21 891.77 L564.19 893.56 L560.17 895.61 L556.53 898.85 L553.76 900.48 L550.37 903.51 L548.93 905.25 L548.11 905.70 L546.22 905.46 L545.45 904.50 L547.46 898.85 L549.15 896.58 L549.99 894.42 L551.88 891.82 L553.28 889.04 L555.27 886.96 L556.48 884.51 L557.91 882.54 L559.14 879.61 L561.05 877.72 L562.30 875.08 L564.32 872.25 L565.31 870.17 L566.96 868.21 L568.18 864.90 L570.32 862.25 L571.25 859.24 L573.23 856.98 L574.65 853.58 L576.17 851.69 L577.14 849.62 L579.01 847.54 L580.36 843.77 L582.31 841.51 L583.48 838.11 L585.45 835.77 L586.34 833.59 L588.09 831.17 L589.59 827.60 L594.12 821.79 L595.59 818.88 L597.18 816.99 L597.63 815.86 L597.69 814.35 L597.15 812.85 L596.38 812.10 L595.25 811.91 L586.58 812.71 L574.51 814.95 L552.25 815.84 L544.33 817.64 L540.56 818.19 L523.59 818.74 L520.95 819.14 L514.91 820.98 L497.19 821.98 L493.03 823.67 L491.14 824.05 L487.37 823.81 L484.35 824.30 L470.03 824.91 L467.01 825.87 L460.59 827.04 L449.27 828.02 L442.48 830.20 L432.30 831.06 L426.27 833.12 L413.45 833.87 L407.03 836.20 L399.11 837.14 L394.58 839.13 L385.16 839.91 L378.37 842.20 L369.61 843.01 L365.54 844.98 L355.74 846.19 L351.21 848.40 L342.53 848.68 L339.51 849.08 L333.85 851.30 L325.93 852.13 L321.79 854.09 L312.77 855.09 L307.31 857.35 L301.03 858.34 L295.84 860.37 L288.97 861.16 L285.58 862.91 L278.40 864.00 L272.74 866.19 L263.69 867.35 L259.19 869.43 L253.16 870.56 L250.11 872.28 L242.58 873.05 L237.67 875.38 L231.26 876.26 L227.92 878.09 L226.35 878.57 L219.94 879.25 L216.16 881.07 L210.21 882.25 L205.13 884.51 L197.69 885.26 L193.53 887.37 L187.33 888.28 L182.98 890.39 L176.94 891.38 L173.16 893.44 L166.76 894.31 L162.23 896.67 L156.44 897.33 L152.80 899.46 L146.39 900.25 L141.62 902.61 L136.21 903.45 L132.05 905.53 L126.40 906.52 L123.37 908.36 L118.85 909.45 L115.08 911.48 L107.92 912.78 L104.52 914.68 L99.61 915.28 L93.58 917.31 L87.92 918.34 L86.03 918.16 L85.36 917.33 L85.45 916.19 L86.08 915.44 L90.94 912.62 L93.95 911.29 L96.22 909.51 L98.86 908.59 L101.50 906.61 L104.90 905.40 L107.01 903.75 L110.18 902.46 L116.97 897.62 L121.50 896.48 L124.13 894.58 L127.15 893.37 L130.55 891.47 L133.56 890.47 L136.58 888.50 L141.11 887.35 L143.37 885.44 L146.76 884.48 L149.79 882.26 L152.80 881.36 L155.44 879.45 L159.80 878.48 L162.98 876.50 L167.51 875.32 L170.15 873.43 L174.68 872.12 L177.32 870.32 L182.22 869.40 L186.00 867.09 L190.90 866.28 L194.66 864.04 L198.44 863.24 L201.08 861.35 L206.74 860.27 L209.38 858.38 L214.64 857.35 L217.68 855.45 L222.58 854.00 L225.60 852.33 L231.63 851.25 L234.27 849.64 L235.79 849.10 L241.44 848.28 L245.59 846.05 L250.50 845.05 L253.51 843.27 L259.11 842.27 L262.33 840.38 L267.84 839.18 L271.61 837.12 L278.40 836.07 L282.03 833.96 L286.71 833.29 L290.85 831.04 L296.51 830.05 L300.66 827.97 L305.95 827.04 L309.71 824.93 L315.00 824.07 L319.14 822.06 L325.93 821.13 L330.84 818.84 L337.63 818.02 L341.96 815.86 L350.59 815.11 L354.60 812.97 L361.39 812.08 L366.29 809.81 L372.32 808.84 L376.10 806.85 L383.64 805.99 L387.42 804.18 L388.93 803.82 L397.19 803.03 L402.50 800.64 L410.05 799.91 L414.95 797.82 L422.87 797.00 L427.40 795.03 L435.69 794.15 L437.96 793.55 L441.74 791.66 L450.03 790.88 L455.69 788.79 L466.63 787.68 L470.03 786.20 L471.91 785.83 L483.22 784.86 L488.13 782.88 L500.20 781.96 L507.37 779.98 L523.59 778.81 L531.13 776.57 L545.09 776.06 L547.35 775.67 L552.63 774.00 L559.42 773.27 L571.87 772.80 L578.92 770.98 L582.43 770.47 L612.98 769.41 L625.06 767.67 L646.56 767.05 L656.36 766.36 L660.88 766.51 L674.00 764.56 Z" fill="url(#navigateWealthIconGradient)" fill-rule="evenodd" clip-rule="evenodd" />
</svg>
