<svg xmlns="http://www.w3.org/2000/svg" viewBox="0 0 512 512" role="img" aria-label="Navigate Wealth icon logo">
  <defs>
    <linearGradient id="nwIconGradient" x1="18%" y1="10%" x2="82%" y2="88%">
      <stop offset="0%" stop-color="#4c1d95"/>
      <stop offset="55%" stop-color="#6d28d9"/>
      <stop offset="100%" stop-color="#8b5cf6"/>
    </linearGradient>
  </defs>

  <g transform="translate(56 60)">
    <path d="M122 295c39-90 44-168 0-238 90 56 136 153 141 238-34-23-68-17-141 0Z" fill="url(#nwIconGradient)"/>
    <path d="M257 267c5-69-18-131-80-194 58 40 100 101 106 176-6 7-15 13-26 18Z" fill="#7c3aed" opacity="0.92"/>
    <path d="M51 321c74-35 152-50 283-53-36 37-62 62-90 78 18-29 27-45 27-56 0-10-6-12-17-12-56 0-133 13-203 43Z" fill="#312e81"/>
  </g>
</svg>
