<svg xmlns="http://www.w3.org/2000/svg" viewBox="0 0 1500 380" role="img" aria-label="Navigate Wealth monochrome logo with tagline">
  <g transform="translate(42 46)">
    <path d="M136 24v162" stroke="#1e293b" stroke-width="8" stroke-linecap="round"/>
    <path d="M136 30l22 7-22 8z" fill="#1e293b"/>
    <path d="M141 48c56 28 93 76 102 140-35-14-67-16-102-11z" fill="#1e293b"/>
    <path d="M130 62c-43 24-72 62-80 116 26-11 52-14 80-10z" fill="#1e293b" opacity="0.72"/>
    <path d="M31 192c54-11 135-16 223-6 12 1 16 8 12 18-20 45-173 59-232 29-16-8-22-15-21-24 1-7 6-14 18-17z" fill="#1e293b"/>
    <path d="M74 188c39-12 96-12 145-1" stroke="#ffffff" stroke-opacity="0.16" stroke-width="5" stroke-linecap="round"/>
    <path d="M18 235c63-11 138-11 248 2-96 22-182 23-248-2z" fill="#1e293b" opacity="0.18"/>
  </g>

  <g transform="translate(350 82)">
    <text x="0" y="98" fill="#1e293b" font-family="Georgia, 'Times New Roman', serif" font-size="112" letter-spacing="0.8" font-weight="700">
      Navigate
    </text>
    <text x="468" y="98" fill="#1e293b" font-family="'Segoe UI', Arial, sans-serif" font-size="78" letter-spacing="3.2" font-weight="700">
      WEALTH
    </text>
    <rect x="2" y="126" width="760" height="3" rx="1.5" fill="#1e293b" opacity="0.28"/>
    <text x="2" y="178" fill="#1e293b" font-family="'Segoe UI', Arial, sans-serif" font-size="28" letter-spacing="5.1" font-weight="600">
      INDEPENDENT FINANCIAL ADVISORY SERVICES
    </text>
  </g>
</svg>
