<svg xmlns="http://www.w3.org/2000/svg" viewBox="0 0 512 512" role="img" aria-label="Navigate Wealth ship icon">
  <defs>
    <linearGradient id="nwIconShip" x1="18%" y1="16%" x2="84%" y2="84%">
      <stop offset="0%" stop-color="#4338ca"/>
      <stop offset="52%" stop-color="#6d28d9"/>
      <stop offset="100%" stop-color="#8b5cf6"/>
    </linearGradient>
    <linearGradient id="nwIconShip2" x1="10%" y1="10%" x2="90%" y2="90%">
      <stop offset="0%" stop-color="#c4b5fd"/>
      <stop offset="100%" stop-color="#7c3aed"/>
    </linearGradient>
  </defs>

  <g transform="translate(56 60)">
    <path d="M168 24v178" stroke="#1f2a44" stroke-width="10" stroke-linecap="round"/>
    <path d="M168 32l24 8-24 9z" fill="#f59e0b"/>
    <path d="M174 52c64 33 107 88 117 154-39-16-76-19-117-14z" fill="url(#nwIconShip)"/>
    <path d="M161 67c-48 28-80 70-88 131 31-13 60-16 88-11z" fill="url(#nwIconShip2)"/>
    <path d="M49 221c64-13 159-19 264-8 13 2 18 9 13 21-24 53-206 69-276 34-19-9-27-19-25-30 1-8 8-15 24-17z" fill="#1f2a44"/>
    <path d="M99 216c46-15 115-15 173-2" stroke="#f8fafc" stroke-opacity="0.3" stroke-width="6" stroke-linecap="round"/>
    <path d="M35 277c74-14 166-14 294 4-115 25-218 25-294-4z" fill="#c4b5fd" fill-opacity="0.7"/>
  </g>
</svg>
