<?xml version="1.0" encoding="UTF-8"?>
<svg xmlns="http://www.w3.org/2000/svg" width="1600" height="1600" viewBox="0 0 1600 1600" fill="none" shape-rendering="geometricPrecision">
  <defs><linearGradient id="navigateWealthSocialGradient" x1="23%" y1="8%" x2="78%" y2="88%">
      <stop offset="0%" stop-color="#9859d9" />
      <stop offset="55%" stop-color="#8d43d6" />
      <stop offset="100%" stop-color="#6220b7" />
    </linearGradient></defs>
  <path d="M444.28 217.34 L445.77 216.80 L448.03 217.36 L456.51 224.43 L461.43 226.40 L466.69 231.00 L468.38 233.26 L471.18 235.44 L473.47 238.04 L477.27 239.97 L480.00 242.23 L483.65 244.30 L491.76 251.85 L494.40 253.46 L496.66 255.88 L506.28 262.75 L509.09 265.30 L511.93 266.94 L523.80 278.65 L543.39 294.25 L554.37 305.55 L561.68 311.96 L563.76 314.61 L571.40 321.39 L582.40 332.69 L585.97 334.96 L588.82 337.61 L610.44 359.27 L619.35 367.54 L631.80 382.62 L643.09 393.95 L649.96 403.93 L654.70 409.59 L670.23 426.13 L672.44 430.51 L677.02 436.60 L688.16 448.03 L690.59 452.07 L697.37 460.17 L699.49 463.87 L703.97 468.96 L706.58 471.22 L708.69 475.15 L711.52 478.71 L712.98 481.39 L715.49 483.65 L720.02 489.32 L722.73 494.40 L733.49 507.97 L740.17 518.71 L742.83 521.54 L749.24 532.28 L752.01 535.67 L753.47 539.63 L756.18 542.66 L758.44 546.87 L761.08 550.38 L762.66 553.77 L765.66 557.16 L767.33 562.25 L769.75 564.98 L771.45 568.27 L774.16 571.85 L776.50 576.94 L779.37 579.76 L781.06 584.27 L783.52 587.70 L785.20 591.09 L787.88 593.90 L789.83 598.99 L792.68 602.39 L794.63 607.29 L796.67 609.75 L798.87 614.26 L801.37 617.65 L803.12 622.20 L806.27 626.71 L807.63 630.80 L810.53 634.05 L812.16 639.33 L815.55 643.59 L816.96 648.18 L819.98 652.15 L821.64 657.24 L824.05 660.06 L826.25 665.15 L828.86 669.11 L830.31 672.51 L833.22 676.46 L835.12 682.11 L837.60 685.57 L839.33 690.59 L842.69 696.17 L844.21 700.77 L846.83 704.73 L848.69 710.94 L851.63 714.91 L853.20 720.56 L856.46 725.09 L857.60 730.18 L860.60 734.13 L862.06 739.78 L864.59 742.61 L866.60 748.84 L869.56 752.79 L870.93 757.88 L874.36 764.02 L875.78 770.31 L878.65 775.40 L880.17 781.06 L883.24 786.15 L885.16 792.36 L887.93 796.19 L889.05 802.18 L892.06 806.51 L893.57 812.56 L897.03 818.94 L898.17 824.59 L901.36 829.12 L902.48 835.34 L905.48 840.43 L907.14 848.37 L910.38 854.00 L912.33 861.35 L914.76 864.74 L916.34 872.08 L919.36 877.17 L920.71 883.23 L924.04 889.62 L925.55 896.97 L928.52 901.50 L929.75 909.52 L932.76 915.07 L934.57 923.55 L937.49 928.64 L939.00 936.54 L942.20 942.04 L943.46 951.25 L946.39 956.89 L947.82 965.38 L951.25 971.85 L952.67 980.64 L955.71 986.87 L956.89 997.25 L959.95 1003.27 L961.52 1014.01 L964.17 1019.65 L964.88 1022.49 L966.24 1032.66 L969.46 1040.59 L970.90 1053.02 L973.82 1059.80 L975.03 1072.24 L978.11 1079.60 L979.44 1088.08 L982.03 1093.73 L981.79 1095.42 L980.64 1096.87 L976.69 1098.22 L953.50 1098.48 L937.68 1101.67 L911.10 1103.26 L906.58 1104.13 L898.10 1106.72 L882.13 1107.86 L879.45 1108.59 L873.78 1111.16 L863.60 1112.47 L857.95 1115.34 L846.08 1116.81 L839.86 1120.22 L832.51 1121.51 L825.73 1124.58 L818.38 1125.68 L812.72 1128.60 L809.90 1129.55 L801.42 1130.87 L795.75 1134.05 L787.27 1135.06 L782.18 1138.34 L776.21 1139.53 L770.31 1142.71 L764.10 1144.67 L759.57 1147.01 L752.13 1148.57 L746.56 1151.77 L739.78 1153.16 L734.13 1156.28 L727.35 1158.15 L723.95 1160.61 L717.17 1162.25 L713.22 1164.85 L706.47 1167.22 L701.87 1170.06 L696.25 1171.35 L691.30 1174.59 L685.99 1175.71 L682.11 1178.35 L675.90 1180.57 L671.37 1183.46 L665.72 1185.02 L660.75 1188.16 L655.56 1189.85 L651.58 1192.36 L646.49 1193.97 L642.53 1196.96 L636.89 1198.72 L632.95 1201.73 L627.83 1203.08 L624.44 1205.85 L617.65 1207.29 L612.56 1210.55 L606.35 1212.43 L602.96 1214.94 L597.30 1216.64 L592.78 1219.69 L588.26 1221.50 L583.73 1224.15 L579.22 1225.83 L575.25 1228.66 L570.16 1230.26 L566.44 1232.82 L562.63 1234.51 L558.28 1237.26 L552.08 1239.48 L548.34 1242.43 L542.46 1243.66 L537.93 1246.91 L533.88 1248.08 L529.45 1251.20 L523.87 1253.17 L520.97 1255.67 L517.83 1257.12 L514.76 1259.46 L510.77 1261.09 L507.97 1264.03 L506.28 1264.86 L505.14 1264.42 L504.26 1262.79 L504.11 1260.52 L504.65 1258.26 L507.97 1253.85 L509.67 1248.71 L516.74 1239.04 L518.83 1233.95 L521.54 1229.71 L523.09 1224.90 L525.50 1221.15 L527.73 1214.16 L530.58 1210.17 L532.28 1204.73 L535.11 1201.25 L536.74 1196.64 L539.15 1193.24 L541.32 1187.55 L543.88 1183.63 L545.56 1177.40 L548.60 1173.45 L549.87 1167.22 L552.97 1162.14 L554.65 1154.79 L557.49 1150.26 L558.89 1144.61 L562.25 1137.93 L563.37 1130.37 L566.76 1123.70 L568.05 1116.92 L571.62 1110.13 L572.62 1103.91 L575.82 1097.71 L577.35 1088.08 L580.30 1081.85 L581.45 1073.37 L585.00 1066.03 L586.15 1055.85 L589.38 1049.07 L590.63 1037.19 L593.36 1030.97 L595.38 1016.84 L598.45 1008.36 L600.01 994.79 L603.06 987.43 L604.15 972.16 L606.73 964.82 L607.56 960.86 L608.58 939.37 L611.29 923.55 L612.17 915.63 L613.53 881.14 L615.58 859.09 L615.80 828.56 L614.06 806.51 L612.26 752.23 L611.36 746.00 L609.17 737.66 L607.03 704.73 L604.15 693.42 L602.96 676.51 L600.16 666.28 L598.67 647.06 L594.94 634.61 L593.80 619.35 L590.75 612.00 L589.21 600.13 L586.14 592.78 L584.90 580.91 L581.62 573.55 L580.06 563.37 L577.04 557.16 L575.59 545.85 L572.91 539.63 L570.77 527.75 L567.94 522.10 L566.88 513.06 L563.41 505.14 L562.32 496.66 L558.91 490.44 L557.72 483.41 L554.50 476.31 L553.09 468.96 L549.82 463.30 L548.68 454.29 L545.49 449.17 L543.93 441.24 L540.76 434.80 L539.37 427.12 L536.23 422.06 L535.20 416.38 L532.28 411.53 L530.43 403.37 L527.57 398.84 L525.78 392.05 L522.90 387.54 L521.58 380.76 L518.61 375.67 L516.90 367.75 L513.72 363.22 L512.37 358.13 L509.18 353.62 L508.16 347.95 L504.95 342.30 L503.45 335.49 L500.61 331.58 L498.39 325.34 L495.91 321.95 L494.66 317.42 L491.57 312.76 L489.86 307.24 L487.04 303.19 L484.79 296.42 L482.34 293.11 L480.83 289.28 L478.21 285.77 L476.10 280.10 L473.41 276.71 L471.45 271.06 L468.79 267.67 L467.26 263.01 L464.19 258.63 L462.74 254.03 L459.61 250.71 L457.90 245.06 L454.81 241.16 L453.92 236.58 L450.46 232.05 L449.12 226.96 L445.77 222.87 L444.26 219.04 L444.28 217.34 Z M722.70 424.28 L723.95 423.96 L725.09 424.30 L728.48 427.35 L732.99 429.61 L746.14 441.24 L751.65 445.47 L755.62 447.79 L772.58 464.13 L782.18 471.08 L791.82 479.70 L794.06 482.34 L801.16 488.18 L807.71 495.52 L815.26 502.31 L821.77 509.36 L823.88 510.79 L833.39 519.85 L835.65 522.66 L838.18 524.36 L842.69 528.57 L849.29 536.23 L851.49 537.93 L862.72 549.80 L869.22 555.47 L880.11 567.34 L887.35 574.35 L889.62 577.40 L891.88 579.13 L898.65 586.56 L910.35 597.87 L912.61 601.83 L916.76 606.86 L925.90 617.65 L928.06 619.47 L930.31 622.74 L937.12 629.73 L943.90 639.09 L952.62 649.32 L955.20 651.69 L957.47 655.44 L959.73 658.04 L961.61 661.75 L969.29 670.81 L971.04 674.95 L982.34 688.89 L984.22 693.98 L987.19 697.37 L991.28 703.60 L993.52 708.13 L996.48 711.42 L998.18 715.66 L1005.27 725.65 L1006.93 730.18 L1010.05 733.89 L1011.75 738.51 L1014.01 741.10 L1015.70 744.38 L1018.60 748.26 L1020.38 753.35 L1023.35 756.74 L1025.00 762.41 L1027.88 765.80 L1028.98 770.31 L1032.48 774.28 L1034.34 779.93 L1037.19 783.30 L1038.31 788.75 L1041.59 792.94 L1042.52 798.03 L1045.74 803.12 L1047.90 810.46 L1050.76 814.73 L1052.09 820.64 L1054.97 825.17 L1056.55 833.65 L1059.35 837.60 L1061.23 845.52 L1064.33 851.14 L1065.59 860.21 L1068.49 865.30 L1070.05 875.48 L1073.34 883.40 L1074.87 897.53 L1077.90 905.50 L1078.94 925.80 L1079.60 929.33 L1081.60 935.42 L1082.58 942.20 L1082.89 974.99 L1082.18 993.09 L1081.52 997.04 L1079.45 1003.27 L1078.61 1009.48 L1078.07 1020.23 L1076.56 1027.58 L1074.42 1033.22 L1073.46 1041.70 L1070.22 1047.37 L1068.67 1055.27 L1065.45 1059.84 L1064.26 1066.03 L1061.50 1070.17 L1059.26 1077.33 L1056.41 1080.89 L1054.71 1086.23 L1051.88 1090.59 L1050.39 1095.98 L1047.93 1099.65 L1045.62 1105.04 L1043.15 1107.86 L1038.57 1114.64 L1036.84 1119.73 L1034.34 1122.00 L1027.54 1132.74 L1024.86 1135.00 L1019.09 1141.48 L1017.96 1142.14 L1016.26 1141.65 L1015.45 1139.53 L1014.41 1113.52 L1011.34 1099.38 L1010.17 1077.33 L1007.07 1066.59 L1005.63 1041.15 L1002.28 1030.97 L1001.06 1013.45 L997.71 1003.83 L996.45 988.00 L993.33 978.94 L992.21 968.77 L988.56 959.56 L987.31 946.16 L984.19 939.37 L983.07 928.64 L979.78 921.27 L977.91 911.10 L975.15 906.01 L973.82 896.97 L970.55 890.74 L969.34 882.68 L966.07 877.17 L965.02 869.83 L961.56 863.04 L960.02 854.56 L956.83 848.91 L955.54 839.30 L952.69 834.77 L950.84 827.42 L947.97 822.89 L946.33 815.55 L943.32 811.51 L942.37 805.93 L939.34 800.84 L937.68 794.18 L934.35 788.41 L932.79 782.18 L930.31 778.23 L928.30 772.01 L925.67 768.05 L923.70 761.83 L920.80 757.32 L919.36 751.65 L916.22 747.70 L914.95 742.05 L912.10 738.66 L910.37 732.43 L907.70 728.45 L905.74 722.82 L902.95 718.30 L901.31 712.64 L898.58 708.69 L896.48 702.46 L893.69 699.07 L891.86 693.42 L889.05 689.62 L887.89 684.38 L884.72 680.41 L883.04 675.32 L880.17 671.93 L878.33 666.84 L875.48 662.94 L874.20 659.50 L871.73 656.10 L869.27 650.71 L866.99 648.06 L865.18 643.09 L862.26 639.70 L860.58 634.61 L857.63 631.22 L855.70 625.61 L852.97 622.18 L851.34 618.79 L848.91 615.63 L846.76 610.87 L844.01 608.05 L842.13 603.13 L839.86 600.54 L837.46 596.18 L835.00 593.34 L833.26 589.39 L830.81 586.66 L828.47 582.61 L826.37 580.33 L824.15 575.25 L821.77 572.75 L819.72 569.04 L817.28 566.21 L815.43 562.25 L812.16 558.37 L806.02 548.11 L804.23 546.36 L801.49 541.90 L799.42 539.63 L796.89 534.71 L794.63 532.37 L792.51 528.89 L790.07 526.63 L787.58 521.54 L780.49 513.33 L778.91 510.23 L770.12 497.80 L767.04 494.96 L765.22 491.27 L761.10 484.79 L757.95 481.95 L753.99 476.87 L751.65 471.88 L744.41 462.74 L740.05 456.51 L738.30 453.12 L735.66 450.30 L733.96 446.91 L731.30 443.20 L729.60 439.28 L726.79 436.29 L724.51 432.19 L721.83 428.81 L721.39 426.56 L722.70 424.28 Z M1224.20 1153.10 L1234.51 1153.08 L1241.30 1153.96 L1256.56 1153.47 L1257.70 1153.79 L1258.72 1154.79 L1259.52 1158.18 L1258.26 1160.39 L1255.43 1162.15 L1240.98 1175.71 L1229.73 1187.02 L1206.81 1207.88 L1176.96 1238.47 L1170.70 1244.13 L1159.13 1256.00 L1147.45 1266.76 L1145.17 1269.52 L1133.30 1280.28 L1127.65 1286.55 L1124.26 1289.37 L1108.43 1305.18 L1096.56 1315.20 L1088.62 1323.28 L1079.62 1330.06 L1077.77 1332.33 L1072.69 1336.85 L1069.42 1338.97 L1066.93 1341.38 L1062.64 1343.78 L1059.60 1346.46 L1053.58 1349.53 L1048.12 1354.39 L1043.98 1356.83 L1038.89 1361.37 L1036.74 1363.99 L1035.50 1364.66 L1032.66 1364.29 L1031.51 1362.87 L1034.53 1354.39 L1037.06 1350.99 L1038.31 1347.75 L1041.15 1343.85 L1043.25 1339.68 L1046.23 1336.57 L1048.05 1332.89 L1050.19 1329.94 L1052.03 1325.55 L1054.90 1322.72 L1056.77 1318.76 L1059.80 1314.52 L1061.28 1311.40 L1063.76 1308.47 L1065.59 1303.50 L1068.79 1299.53 L1070.18 1295.02 L1073.15 1291.63 L1075.29 1286.54 L1077.56 1283.70 L1079.02 1280.60 L1081.82 1277.48 L1083.84 1271.83 L1086.77 1268.44 L1088.52 1263.35 L1091.47 1259.84 L1092.81 1256.56 L1095.42 1252.93 L1097.68 1247.59 L1104.46 1238.87 L1106.67 1234.51 L1109.06 1231.68 L1109.72 1229.98 L1109.82 1227.73 L1109.01 1225.47 L1107.86 1224.35 L1106.16 1224.06 L1093.17 1225.27 L1075.07 1228.63 L1041.70 1229.97 L1029.83 1232.66 L1024.18 1233.48 L998.74 1234.31 L994.79 1234.90 L985.73 1237.67 L959.17 1239.16 L952.94 1241.71 L950.11 1242.27 L944.46 1241.91 L939.93 1242.64 L918.46 1243.55 L913.93 1245.00 L904.31 1246.74 L887.35 1248.22 L877.17 1251.49 L861.91 1252.78 L852.87 1255.87 L833.65 1256.99 L824.03 1260.48 L812.16 1261.89 L805.37 1264.88 L791.24 1266.05 L781.06 1269.47 L767.94 1270.69 L761.83 1273.65 L747.14 1275.46 L740.36 1278.77 L727.35 1279.19 L722.82 1279.79 L714.34 1283.11 L702.46 1284.37 L696.25 1287.30 L682.74 1288.79 L674.56 1292.18 L665.15 1293.66 L657.36 1296.71 L647.06 1297.90 L641.97 1300.51 L631.22 1302.16 L622.74 1305.43 L609.17 1307.18 L602.42 1310.28 L593.38 1311.98 L588.82 1314.56 L577.52 1315.71 L570.16 1319.21 L560.56 1320.53 L555.55 1323.28 L553.20 1323.99 L543.59 1325.01 L537.93 1327.74 L529.01 1329.50 L521.39 1332.89 L510.23 1334.01 L504.00 1337.19 L494.71 1338.54 L488.18 1341.71 L479.14 1343.19 L473.47 1346.28 L463.87 1347.58 L457.09 1351.13 L448.40 1352.11 L442.94 1355.30 L433.34 1356.49 L426.18 1360.03 L418.07 1361.29 L411.85 1364.41 L403.37 1365.89 L398.84 1368.65 L392.05 1370.28 L386.41 1373.31 L375.67 1375.27 L370.58 1378.12 L363.22 1379.01 L354.18 1382.07 L345.70 1383.61 L342.86 1383.34 L341.86 1382.08 L342.00 1380.39 L342.93 1379.25 L350.23 1375.03 L354.74 1373.04 L358.13 1370.36 L362.10 1368.99 L366.05 1366.02 L371.14 1364.21 L374.31 1361.73 L379.06 1359.80 L389.24 1352.55 L396.02 1350.84 L399.98 1347.99 L404.50 1346.18 L409.59 1343.33 L414.11 1341.83 L418.63 1338.88 L425.42 1337.15 L428.81 1334.29 L433.90 1332.84 L438.43 1329.52 L442.94 1328.18 L446.91 1325.31 L453.44 1323.85 L458.21 1320.88 L464.99 1319.12 L468.96 1316.29 L475.75 1314.32 L479.70 1311.62 L487.04 1310.25 L492.71 1306.79 L500.05 1305.57 L505.70 1302.21 L511.37 1301.01 L515.32 1298.17 L523.80 1296.56 L527.75 1293.73 L535.64 1292.18 L540.20 1289.34 L547.55 1287.16 L552.08 1284.65 L561.12 1283.04 L565.07 1280.63 L567.34 1279.82 L575.82 1278.58 L582.03 1275.24 L589.39 1273.75 L593.90 1271.08 L602.30 1269.57 L607.13 1266.74 L615.40 1264.94 L621.04 1261.86 L631.22 1260.28 L636.67 1257.12 L643.67 1256.12 L649.88 1252.75 L658.36 1251.26 L664.59 1248.15 L672.51 1246.74 L678.16 1243.59 L686.08 1242.30 L692.28 1239.28 L702.46 1237.89 L709.82 1234.46 L720.00 1233.22 L726.50 1229.98 L739.42 1228.87 L745.44 1225.66 L755.62 1224.32 L762.97 1220.93 L772.01 1219.47 L777.67 1216.48 L788.97 1215.19 L794.63 1212.48 L796.89 1211.94 L809.27 1210.77 L817.24 1207.17 L828.56 1206.09 L835.90 1202.95 L847.78 1201.73 L854.56 1198.77 L866.99 1197.45 L870.39 1196.55 L876.05 1193.72 L888.49 1192.55 L896.97 1189.41 L913.37 1187.75 L918.46 1185.53 L921.27 1184.98 L938.24 1183.53 L945.60 1180.56 L963.68 1179.18 L974.43 1176.21 L998.74 1174.45 L1010.05 1171.09 L1030.97 1170.33 L1034.36 1169.75 L1042.28 1167.24 L1052.46 1166.16 L1071.12 1165.44 L1081.68 1162.71 L1086.94 1161.95 L1132.74 1160.37 L1150.84 1157.76 L1183.07 1156.83 L1197.76 1155.79 L1204.54 1156.01 L1224.20 1153.10 Z" fill="url(#navigateWealthSocialGradient)" fill-rule="evenodd" clip-rule="evenodd" />
</svg>
