<?xml version="1.0" encoding="UTF-8"?>
<svg xmlns="http://www.w3.org/2000/svg" width="1576" height="892" viewBox="0 0 1576 892" fill="none" shape-rendering="geometricPrecision">
  <defs>
    <linearGradient id="navigateWealthBrandGradient" x1="23%" y1="8%" x2="78%" y2="88%">
      <stop offset="0%" stop-color="#9859d9" />
      <stop offset="55%" stop-color="#8d43d6" />
      <stop offset="100%" stop-color="#6220b7" />
    </linearGradient>
    
  </defs>
  <path d="M128.12 83.33 L129.00 83.01 L130.33 83.34 L135.33 87.51 L138.23 88.67 L141.33 91.38 L142.33 92.71 L143.98 94.00 L145.33 95.53 L147.57 96.67 L149.18 98.00 L151.33 99.22 L156.11 103.67 L157.67 104.62 L159.00 106.05 L164.67 110.10 L166.33 111.60 L168.00 112.57 L175.00 119.47 L186.55 128.67 L193.02 135.33 L197.33 139.11 L198.56 140.67 L203.06 144.67 L209.55 151.33 L211.65 152.67 L213.33 154.23 L226.08 167.00 L231.33 171.88 L238.67 180.77 L245.33 187.45 L249.38 193.33 L252.17 196.67 L261.33 206.42 L262.63 209.00 L265.33 212.59 L271.90 219.33 L273.33 221.71 L277.33 226.49 L278.58 228.67 L281.22 231.67 L282.76 233.00 L284.00 235.32 L285.67 237.42 L286.53 239.00 L288.01 240.33 L290.68 243.67 L292.28 246.67 L298.62 254.67 L302.56 261.00 L304.13 262.67 L307.91 269.00 L309.54 271.00 L310.40 273.33 L312.00 275.12 L313.33 277.60 L314.89 279.67 L315.82 281.67 L317.59 283.67 L318.57 286.67 L320.00 288.28 L321.00 290.22 L322.60 292.33 L323.98 295.33 L325.67 296.99 L326.67 299.65 L328.12 301.67 L329.11 303.67 L330.69 305.33 L331.84 308.33 L333.52 310.33 L334.67 313.22 L335.87 314.67 L337.17 317.33 L338.64 319.33 L339.67 322.01 L341.53 324.67 L342.33 327.08 L344.04 329.00 L345.00 332.11 L347.00 334.62 L347.83 337.33 L349.61 339.67 L350.59 342.67 L352.01 344.33 L353.31 347.33 L354.85 349.67 L355.70 351.67 L357.42 354.00 L358.54 357.33 L360.00 359.37 L361.02 362.33 L363.00 365.62 L363.90 368.33 L365.44 370.67 L366.54 374.33 L368.27 376.67 L369.20 380.00 L371.12 382.67 L371.79 385.67 L373.56 388.00 L374.42 391.33 L375.91 393.00 L377.10 396.67 L378.84 399.00 L379.65 402.00 L381.67 405.62 L382.51 409.33 L384.20 412.33 L385.10 415.67 L386.91 418.67 L388.04 422.33 L389.67 424.59 L390.33 428.12 L392.11 430.67 L393.00 434.24 L395.04 438.00 L395.71 441.33 L397.59 444.00 L398.25 447.67 L400.02 450.67 L401.00 455.35 L402.91 458.67 L404.06 463.00 L405.49 465.00 L406.42 469.33 L408.20 472.33 L409.00 475.90 L410.96 479.67 L411.85 484.00 L413.60 486.67 L414.33 491.40 L416.10 494.67 L417.17 499.67 L418.89 502.67 L419.78 507.33 L421.67 510.57 L422.41 516.00 L424.14 519.33 L424.98 524.33 L427.00 528.15 L427.84 533.33 L429.63 537.00 L430.33 543.12 L432.13 546.67 L433.06 553.00 L434.62 556.33 L435.04 558.00 L435.84 564.00 L437.74 568.67 L438.59 576.00 L440.31 580.00 L441.02 587.33 L442.84 591.67 L443.62 596.67 L445.15 600.00 L445.01 601.00 L444.33 601.85 L442.00 602.65 L428.33 602.80 L419.00 604.68 L403.33 605.62 L400.67 606.13 L395.67 607.66 L386.25 608.33 L384.67 608.76 L381.33 610.28 L375.33 611.05 L372.00 612.74 L365.00 613.61 L361.33 615.62 L357.00 616.38 L353.00 618.19 L348.67 618.84 L345.33 620.56 L343.67 621.12 L338.67 621.90 L335.33 623.77 L330.33 624.37 L327.33 626.30 L323.81 627.00 L320.33 628.88 L316.67 630.03 L314.00 631.41 L309.61 632.33 L306.33 634.22 L302.33 635.04 L299.00 636.88 L295.00 637.98 L293.00 639.43 L289.00 640.40 L286.67 641.93 L282.69 643.33 L279.98 645.00 L276.67 645.76 L273.75 647.67 L270.62 648.33 L268.33 649.89 L264.67 651.20 L262.00 652.90 L258.67 653.82 L255.74 655.67 L252.68 656.67 L250.33 658.15 L247.33 659.10 L245.00 660.86 L241.67 661.90 L239.35 663.67 L236.33 664.47 L234.33 666.10 L230.33 666.95 L227.33 668.87 L223.67 669.98 L221.67 671.46 L218.33 672.46 L215.67 674.26 L213.00 675.33 L210.33 676.89 L207.67 677.88 L205.33 679.55 L202.33 680.49 L200.14 682.00 L197.89 683.00 L195.33 684.62 L191.67 685.93 L189.47 687.67 L186.00 688.39 L183.33 690.31 L180.94 691.00 L178.33 692.84 L175.04 694.00 L173.33 695.47 L171.48 696.33 L169.67 697.71 L167.32 698.67 L165.67 700.40 L164.67 700.89 L164.00 700.63 L163.48 699.67 L163.39 698.33 L163.71 697.00 L165.67 694.40 L166.67 691.37 L170.84 685.67 L172.07 682.67 L173.67 680.17 L174.58 677.33 L176.00 675.12 L177.32 671.00 L179.00 668.65 L180.00 665.44 L181.67 663.39 L182.63 660.67 L184.05 658.67 L185.33 655.31 L186.84 653.00 L187.83 649.33 L189.62 647.00 L190.37 643.33 L192.20 640.33 L193.19 636.00 L194.86 633.33 L195.69 630.00 L197.67 626.06 L198.33 621.60 L200.33 617.67 L201.09 613.67 L203.19 609.67 L203.78 606.00 L205.67 602.35 L206.57 596.67 L208.31 593.00 L208.99 588.00 L211.08 583.67 L211.76 577.67 L213.66 573.67 L214.40 566.67 L216.01 563.00 L217.20 554.67 L219.01 549.67 L219.93 541.67 L221.73 537.33 L222.37 528.33 L223.89 524.00 L224.38 521.67 L224.98 509.00 L226.58 499.67 L227.10 495.00 L227.90 474.67 L229.11 461.67 L229.24 443.67 L228.21 430.67 L227.15 398.67 L226.62 395.00 L225.33 390.08 L224.07 370.67 L222.37 364.00 L221.67 354.03 L220.02 348.00 L219.14 336.67 L216.94 329.33 L216.27 320.33 L214.47 316.00 L213.56 309.00 L211.75 304.67 L211.02 297.67 L209.09 293.33 L208.17 287.33 L206.39 283.67 L205.53 277.00 L203.95 273.33 L202.69 266.33 L201.02 263.00 L200.40 257.67 L198.35 253.00 L197.71 248.00 L195.70 244.33 L195.00 240.19 L193.10 236.00 L192.27 231.67 L190.34 228.33 L189.67 223.02 L187.79 220.00 L186.87 215.33 L185.00 211.53 L184.18 207.00 L182.33 204.02 L181.72 200.67 L180.00 197.81 L178.91 193.00 L177.22 190.33 L176.17 186.33 L174.47 183.67 L173.69 179.67 L171.94 176.67 L170.93 172.00 L169.06 169.33 L168.26 166.33 L166.38 163.67 L165.78 160.33 L163.89 157.00 L163.00 152.98 L161.33 150.68 L160.02 147.00 L158.56 145.00 L157.82 142.33 L156.00 139.58 L154.99 136.33 L153.33 133.94 L152.00 129.95 L150.56 128.00 L149.67 125.74 L148.12 123.67 L146.88 120.33 L145.29 118.33 L144.14 115.00 L142.57 113.00 L141.67 110.25 L139.86 107.67 L139.00 104.96 L137.16 103.00 L136.15 99.67 L134.33 97.37 L133.80 94.67 L131.76 92.00 L130.97 89.00 L129.00 86.59 L128.11 84.33 L128.12 83.33 Z M292.26 205.33 L293.00 205.14 L293.67 205.34 L295.67 207.14 L298.33 208.47 L306.08 215.33 L309.33 217.82 L311.67 219.19 L321.67 228.82 L327.33 232.92 L333.01 238.00 L334.33 239.56 L338.52 243.00 L342.38 247.33 L346.83 251.33 L350.67 255.49 L351.91 256.33 L357.52 261.67 L358.85 263.33 L360.34 264.33 L363.00 266.81 L366.89 271.33 L368.19 272.33 L374.81 279.33 L378.64 282.67 L385.06 289.67 L389.33 293.80 L390.67 295.60 L392.00 296.62 L395.99 301.00 L402.89 307.67 L404.22 310.00 L406.67 312.97 L412.06 319.33 L413.33 320.40 L414.66 322.33 L418.67 326.45 L422.67 331.97 L427.81 338.00 L429.33 339.40 L430.67 341.61 L432.00 343.14 L433.11 345.33 L437.64 350.67 L438.67 353.11 L445.33 361.33 L446.44 364.33 L448.19 366.33 L450.60 370.00 L451.92 372.67 L453.67 374.61 L454.67 377.11 L458.85 383.00 L459.83 385.67 L461.67 387.86 L462.67 390.58 L464.00 392.11 L465.00 394.04 L466.71 396.33 L467.76 399.33 L469.51 401.33 L470.48 404.67 L472.18 406.67 L472.83 409.33 L474.89 411.67 L475.99 415.00 L477.67 416.99 L478.33 420.20 L480.26 422.67 L480.81 425.67 L482.71 428.67 L483.98 433.00 L485.67 435.52 L486.45 439.00 L488.15 441.67 L489.08 446.67 L490.73 449.00 L491.84 453.67 L493.67 456.98 L494.41 462.33 L496.12 465.33 L497.04 471.33 L498.98 476.00 L499.88 484.33 L501.67 489.03 L502.28 501.00 L502.67 503.08 L503.85 506.67 L504.43 510.67 L504.61 530.00 L504.19 540.67 L503.80 543.00 L502.58 546.67 L502.09 550.33 L501.77 556.67 L500.88 561.00 L499.62 564.33 L499.05 569.33 L497.14 572.67 L496.23 577.33 L494.33 580.02 L493.63 583.67 L492.00 586.11 L490.68 590.33 L489.00 592.43 L488.00 595.58 L486.33 598.15 L485.45 601.33 L484.00 603.49 L482.64 606.67 L481.18 608.33 L478.48 612.33 L477.46 615.33 L475.99 616.67 L471.98 623.00 L470.40 624.33 L467.00 628.15 L466.33 628.54 L465.33 628.25 L464.85 627.00 L464.24 611.67 L462.43 603.33 L461.74 590.33 L459.91 584.00 L459.06 569.00 L457.09 563.00 L456.37 552.67 L454.39 547.00 L453.65 537.67 L451.81 532.33 L451.15 526.33 L449.00 520.90 L448.26 513.00 L446.42 509.00 L445.76 502.67 L443.82 498.33 L442.72 492.33 L441.09 489.33 L440.31 484.00 L438.38 480.33 L437.67 475.58 L435.74 472.33 L435.12 468.00 L433.08 464.00 L432.17 459.00 L430.29 455.67 L429.53 450.00 L427.85 447.33 L426.76 443.00 L425.07 440.33 L424.10 436.00 L422.33 433.62 L421.77 430.33 L419.98 427.33 L419.00 423.40 L417.04 420.00 L416.12 416.33 L414.66 414.00 L413.47 410.33 L411.92 408.00 L410.76 404.33 L409.05 401.67 L408.20 398.33 L406.35 396.00 L405.60 392.67 L403.92 390.67 L402.90 387.00 L401.33 384.65 L400.17 381.33 L398.53 378.67 L397.56 375.33 L395.95 373.00 L394.71 369.33 L393.07 367.33 L391.99 364.00 L390.33 361.76 L389.65 358.67 L387.78 356.33 L386.79 353.33 L385.10 351.33 L384.01 348.33 L382.33 346.03 L381.58 344.00 L380.12 342.00 L378.67 338.82 L377.33 337.26 L376.26 334.33 L374.54 332.33 L373.55 329.33 L371.81 327.33 L370.67 324.02 L369.06 322.00 L368.10 320.00 L366.67 318.14 L365.40 315.33 L363.78 313.67 L362.67 310.77 L361.33 309.24 L359.92 306.67 L358.47 305.00 L357.44 302.67 L356.00 301.06 L354.62 298.67 L353.38 297.33 L352.07 294.33 L350.67 292.86 L349.46 290.67 L348.02 289.00 L346.93 286.67 L345.00 284.38 L341.38 278.33 L340.33 277.30 L338.71 274.67 L337.49 273.33 L336.00 270.43 L334.67 269.05 L333.42 267.00 L331.98 265.67 L330.51 262.67 L326.33 257.83 L325.40 256.00 L320.22 248.67 L318.40 247.00 L317.33 244.82 L314.90 241.00 L313.04 239.33 L310.71 236.33 L309.33 233.39 L305.06 228.00 L302.49 224.33 L301.46 222.33 L299.90 220.67 L298.90 218.67 L297.33 216.48 L296.33 214.17 L294.67 212.41 L293.33 209.99 L291.75 208.00 L291.49 206.67 L292.26 205.33 Z M587.92 635.00 L594.00 634.99 L598.00 635.51 L607.00 635.22 L607.67 635.41 L608.27 636.00 L608.74 638.00 L608.00 639.30 L606.33 640.34 L597.81 648.33 L591.18 655.00 L577.67 667.30 L560.07 685.33 L556.38 688.67 L549.56 695.67 L542.67 702.01 L541.33 703.64 L534.33 709.98 L531.00 713.68 L529.00 715.34 L519.67 724.66 L512.67 730.57 L507.99 735.33 L502.68 739.33 L501.59 740.67 L498.60 743.33 L496.67 744.58 L495.20 746.00 L492.67 747.42 L490.88 749.00 L487.33 750.81 L484.11 753.67 L481.67 755.11 L478.67 757.79 L477.40 759.33 L476.67 759.73 L475.00 759.51 L474.32 758.67 L476.10 753.67 L477.59 751.67 L478.33 749.76 L480.00 747.46 L481.24 745.00 L483.00 743.17 L484.07 741.00 L485.33 739.26 L486.42 736.67 L488.11 735.00 L489.21 732.67 L491.00 730.17 L491.87 728.33 L493.33 726.60 L494.41 723.67 L496.30 721.33 L497.12 718.67 L498.87 716.67 L500.13 713.67 L501.47 712.00 L502.33 710.17 L503.98 708.33 L505.17 705.00 L506.90 703.00 L507.93 700.00 L509.67 697.93 L510.46 696.00 L512.00 693.86 L513.33 690.71 L517.33 685.57 L518.63 683.00 L520.04 681.33 L520.43 680.33 L520.49 679.00 L520.01 677.67 L519.33 677.01 L518.33 676.84 L510.67 677.55 L500.00 679.53 L480.33 680.32 L473.33 681.91 L470.00 682.39 L455.00 682.88 L452.67 683.23 L447.33 684.86 L431.67 685.74 L428.00 687.24 L426.33 687.57 L423.00 687.36 L420.33 687.79 L407.67 688.33 L405.00 689.18 L399.33 690.21 L389.33 691.08 L383.33 693.01 L374.33 693.77 L369.00 695.59 L357.67 696.25 L352.00 698.31 L345.00 699.14 L341.00 700.90 L332.67 701.59 L326.67 703.61 L318.93 704.33 L315.33 706.07 L306.67 707.14 L302.67 709.09 L295.00 709.34 L292.33 709.69 L287.33 711.65 L280.33 712.39 L276.67 714.12 L268.70 715.00 L263.88 717.00 L258.33 717.87 L253.74 719.67 L247.67 720.37 L244.67 721.91 L238.33 722.88 L233.33 724.81 L225.33 725.84 L221.35 727.67 L216.02 728.67 L213.33 730.19 L206.67 730.87 L202.33 732.93 L196.67 733.71 L193.72 735.33 L192.33 735.75 L186.67 736.35 L183.33 737.96 L178.07 739.00 L173.58 741.00 L167.00 741.66 L163.33 743.53 L157.85 744.33 L154.00 746.20 L148.67 747.07 L145.33 748.89 L139.67 749.66 L135.67 751.75 L130.55 752.33 L127.33 754.21 L121.67 754.91 L117.45 757.00 L112.67 757.74 L109.00 759.58 L104.00 760.45 L101.33 762.08 L97.33 763.04 L94.00 764.83 L87.67 765.98 L84.67 767.66 L80.33 768.19 L75.00 769.99 L70.00 770.90 L68.33 770.74 L67.74 770.00 L67.82 769.00 L68.37 768.33 L72.67 765.84 L75.33 764.67 L77.33 763.09 L79.67 762.28 L82.00 760.53 L85.00 759.46 L86.87 758.00 L89.67 756.86 L95.67 752.59 L99.67 751.58 L102.00 749.90 L104.67 748.83 L107.67 747.15 L110.33 746.27 L113.00 744.53 L117.00 743.51 L119.00 741.82 L122.00 740.97 L124.67 739.01 L127.33 738.22 L129.67 736.53 L133.52 735.67 L136.33 733.92 L140.33 732.88 L142.67 731.21 L146.67 730.05 L149.00 728.46 L153.33 727.65 L156.67 725.61 L161.00 724.89 L164.33 722.91 L167.67 722.20 L170.00 720.53 L175.00 719.58 L177.33 717.91 L181.98 717.00 L184.67 715.32 L189.00 714.04 L191.67 712.56 L197.00 711.61 L199.33 710.19 L200.67 709.71 L205.67 708.98 L209.33 707.01 L213.67 706.13 L216.33 704.56 L221.28 703.67 L224.13 702.00 L229.00 700.94 L232.33 699.12 L238.33 698.19 L241.54 696.33 L245.67 695.74 L249.33 693.75 L254.33 692.87 L258.00 691.04 L262.67 690.21 L266.00 688.35 L270.67 687.59 L274.33 685.81 L280.33 684.99 L284.67 682.97 L290.67 682.24 L294.50 680.33 L302.12 679.67 L305.67 677.78 L311.67 676.99 L316.00 674.99 L321.33 674.13 L324.67 672.37 L331.33 671.61 L334.67 670.01 L336.00 669.69 L343.30 669.00 L348.00 666.88 L354.67 666.24 L359.00 664.39 L366.00 663.67 L370.00 661.93 L377.33 661.15 L379.33 660.62 L382.67 658.95 L390.00 658.26 L395.00 656.41 L404.67 655.43 L407.67 654.12 L409.33 653.80 L419.33 652.94 L423.67 651.19 L434.33 650.38 L440.67 648.63 L455.00 647.59 L461.67 645.61 L474.00 645.16 L476.00 644.82 L480.67 643.34 L486.67 642.70 L497.67 642.28 L503.90 640.67 L507.00 640.22 L534.00 639.29 L544.67 637.75 L563.67 637.20 L572.33 636.59 L576.33 636.72 L587.92 635.00 Z" fill="url(#navigateWealthBrandGradient)" fill-rule="evenodd" clip-rule="evenodd" />
  <path d="M1039.61 275.00 L1043.00 275.16 L1047.00 276.69 L1051.67 277.65 L1053.00 278.21 L1054.33 279.58 L1055.99 280.67 L1058.64 283.67 L1059.96 287.33 L1061.53 290.00 L1061.92 293.33 L1061.69 297.67 L1061.24 299.33 L1059.76 302.33 L1058.94 305.67 L1056.06 309.33 L1054.00 311.34 L1052.00 312.37 L1050.00 313.93 L1048.67 314.39 L1041.00 315.12 L1036.33 314.85 L1033.00 314.01 L1031.33 312.64 L1028.67 311.76 L1028.00 311.24 L1025.34 308.00 L1024.05 304.67 L1022.67 303.01 L1022.33 302.14 L1022.00 297.67 L1022.30 290.00 L1022.79 288.67 L1023.99 287.00 L1025.13 284.00 L1027.92 280.67 L1029.67 279.40 L1031.00 277.93 L1034.60 277.00 L1037.67 275.44 L1039.61 275.00 Z M603.58 278.33 L609.33 278.55 L615.67 278.38 L623.33 279.10 L637.67 279.11 L641.67 278.69 L644.00 279.11 L645.62 280.00 L652.00 287.50 L653.42 288.67 L656.00 291.94 L657.33 294.14 L661.33 298.74 L662.57 300.67 L666.83 305.00 L669.41 308.67 L670.67 311.05 L677.45 318.33 L678.50 320.00 L685.59 328.33 L686.38 329.67 L688.00 331.19 L689.27 333.00 L693.00 337.14 L694.67 340.03 L697.33 343.49 L698.93 345.00 L702.67 350.87 L704.10 352.33 L705.23 354.00 L709.44 358.33 L710.67 360.36 L716.00 367.10 L717.33 368.26 L718.53 370.00 L720.00 371.25 L725.26 377.00 L726.66 379.33 L729.52 383.00 L732.33 385.32 L733.00 385.55 L733.91 385.00 L734.22 383.33 L733.87 323.33 L733.34 304.00 L731.92 299.67 L731.04 295.33 L728.02 291.33 L724.99 288.33 L721.98 287.67 L719.00 285.93 L715.31 285.00 L714.00 284.36 L712.75 282.33 L712.53 281.33 L712.67 280.27 L713.33 279.25 L714.33 278.68 L719.67 278.44 L730.00 279.20 L750.67 279.10 L764.67 278.49 L769.67 278.87 L772.33 279.59 L773.46 280.33 L773.75 281.33 L773.57 282.00 L771.26 284.33 L769.67 285.08 L766.67 285.70 L764.44 287.33 L761.40 288.33 L756.64 292.00 L754.75 295.33 L753.01 297.67 L752.26 303.00 L751.44 305.67 L750.50 322.00 L750.21 379.33 L750.24 408.67 L750.49 414.00 L750.29 437.67 L750.13 439.00 L749.67 439.82 L748.00 440.41 L735.67 440.14 L734.20 439.67 L732.33 438.11 L730.44 435.33 L726.45 431.00 L720.11 422.33 L718.64 421.00 L717.33 419.21 L713.31 415.33 L712.00 413.36 L708.06 408.67 L706.78 406.67 L701.62 400.67 L700.00 399.40 L697.33 396.32 L694.67 392.99 L693.33 390.52 L688.00 384.48 L686.62 383.33 L679.99 374.33 L678.52 373.00 L674.93 368.67 L673.27 367.33 L669.33 361.61 L663.84 355.00 L662.41 353.67 L661.65 352.33 L660.04 350.67 L655.84 345.00 L646.67 334.75 L642.67 328.79 L641.31 327.67 L637.67 323.16 L636.33 322.46 L634.67 323.18 L634.19 324.67 L634.71 327.67 L634.99 348.33 L634.90 408.00 L635.74 417.33 L637.38 420.67 L638.33 423.79 L641.67 428.06 L645.11 430.00 L646.77 431.67 L649.67 432.47 L652.00 434.22 L654.37 435.33 L656.00 437.23 L656.40 438.33 L656.34 439.00 L655.67 439.89 L654.33 440.15 L652.33 439.92 L622.67 439.75 L603.67 439.96 L601.67 439.74 L600.67 439.17 L600.25 438.33 L600.46 436.67 L600.94 435.33 L601.80 434.33 L604.33 432.39 L607.33 432.06 L608.67 431.58 L613.36 428.33 L614.67 425.92 L616.19 424.00 L617.10 420.00 L618.93 417.33 L619.46 411.67 L619.48 321.00 L619.24 304.00 L618.82 302.33 L617.12 299.67 L616.33 296.88 L614.67 295.46 L613.33 293.47 L611.43 291.67 L607.00 288.56 L603.33 287.53 L601.00 286.17 L598.18 285.00 L597.00 284.08 L596.00 282.74 L595.56 281.33 L595.77 280.67 L596.46 280.00 L603.58 278.33 Z M1359.26 296.00 L1361.67 295.77 L1364.00 296.01 L1365.00 296.45 L1365.58 297.33 L1365.78 328.33 L1366.03 329.67 L1366.67 330.62 L1368.00 331.13 L1378.00 330.81 L1395.33 330.89 L1396.67 331.24 L1397.33 331.83 L1398.03 334.33 L1397.73 342.33 L1397.31 343.33 L1396.00 344.23 L1393.67 344.80 L1389.00 344.18 L1368.67 344.14 L1367.00 344.53 L1366.06 345.67 L1365.26 349.33 L1365.24 371.67 L1365.86 409.67 L1366.32 416.67 L1369.33 420.97 L1372.00 423.67 L1375.67 426.20 L1379.33 426.66 L1386.33 426.48 L1390.33 425.82 L1393.67 424.41 L1396.33 424.10 L1398.33 424.56 L1398.82 425.67 L1397.78 428.67 L1397.11 429.67 L1395.33 431.44 L1393.67 432.50 L1392.20 434.00 L1388.33 437.07 L1384.67 437.99 L1381.00 439.71 L1376.00 440.23 L1367.67 441.71 L1360.00 442.31 L1356.67 441.94 L1352.69 440.33 L1348.33 439.76 L1345.59 438.00 L1343.23 437.00 L1337.26 431.00 L1336.07 427.33 L1334.64 425.33 L1334.18 423.33 L1333.18 412.00 L1333.43 409.00 L1333.26 393.00 L1333.50 379.67 L1333.34 365.00 L1333.55 349.00 L1333.33 346.88 L1332.90 345.67 L1332.33 344.99 L1330.00 344.16 L1327.33 343.94 L1318.33 344.08 L1317.00 343.84 L1316.25 343.33 L1315.75 342.33 L1315.51 339.00 L1315.55 337.67 L1316.00 336.50 L1319.00 333.73 L1323.33 332.68 L1326.67 331.45 L1332.33 330.46 L1333.46 329.67 L1333.94 327.67 L1333.68 321.33 L1333.96 314.00 L1334.32 312.00 L1335.08 310.67 L1338.33 308.92 L1340.67 306.90 L1343.33 305.89 L1344.70 304.67 L1347.13 303.33 L1348.67 301.85 L1351.33 301.02 L1353.55 299.00 L1355.67 297.98 L1357.67 296.51 L1359.26 296.00 Z M1187.37 326.33 L1189.33 326.07 L1191.00 326.24 L1196.67 327.96 L1197.61 328.67 L1198.02 330.00 L1198.17 333.33 L1197.71 340.33 L1197.33 341.18 L1196.67 341.70 L1193.74 342.00 L1191.67 343.41 L1190.33 343.75 L1182.33 343.33 L1179.00 341.96 L1177.00 341.63 L1173.67 341.96 L1172.66 342.67 L1172.75 343.67 L1174.33 346.49 L1175.98 348.67 L1177.00 351.37 L1178.80 354.00 L1179.62 359.33 L1181.08 363.67 L1181.40 369.33 L1178.79 380.67 L1177.32 382.67 L1176.07 385.67 L1174.67 386.96 L1173.50 388.67 L1171.00 391.38 L1166.43 395.33 L1165.00 396.90 L1162.67 398.01 L1160.91 399.33 L1158.33 400.47 L1155.67 402.19 L1149.00 403.33 L1145.33 404.98 L1136.67 405.93 L1129.67 406.19 L1124.00 406.99 L1120.00 406.77 L1116.33 406.01 L1113.67 406.25 L1112.00 406.85 L1110.67 407.72 L1109.00 410.16 L1106.87 411.67 L1106.25 413.33 L1106.53 414.67 L1107.41 415.67 L1110.67 417.56 L1112.67 418.20 L1117.33 418.69 L1152.67 418.70 L1165.00 419.17 L1167.67 419.66 L1172.33 421.10 L1177.33 421.80 L1180.13 423.67 L1183.00 424.59 L1186.47 427.33 L1189.67 430.64 L1190.63 433.00 L1192.20 435.33 L1193.07 439.33 L1194.44 443.00 L1194.60 447.67 L1193.07 452.67 L1192.38 456.67 L1191.98 457.67 L1190.45 459.67 L1189.36 463.00 L1187.93 464.33 L1186.87 466.00 L1184.00 469.38 L1179.00 473.98 L1176.67 475.24 L1174.89 476.67 L1172.00 477.80 L1169.67 479.36 L1165.00 480.55 L1162.00 482.37 L1157.67 483.13 L1153.67 485.06 L1144.67 485.89 L1138.33 487.47 L1130.67 487.88 L1124.33 487.72 L1120.67 487.25 L1113.67 485.66 L1104.67 484.87 L1101.33 483.09 L1097.33 482.12 L1095.33 480.64 L1092.01 479.67 L1089.85 478.00 L1086.83 476.67 L1083.50 474.00 L1081.33 471.87 L1078.67 467.89 L1078.10 466.00 L1077.09 457.67 L1078.42 449.67 L1079.99 447.33 L1081.15 444.67 L1084.00 440.58 L1086.52 439.00 L1088.47 437.33 L1089.21 436.33 L1089.10 435.33 L1086.67 432.99 L1084.04 428.67 L1083.50 426.00 L1083.73 422.00 L1086.33 416.41 L1088.56 414.00 L1094.67 408.62 L1095.67 408.20 L1099.67 407.58 L1101.00 407.04 L1101.87 406.00 L1102.34 404.33 L1102.17 403.67 L1101.50 403.00 L1099.67 402.07 L1097.67 400.52 L1095.00 399.43 L1093.59 398.00 L1092.05 397.00 L1088.67 393.95 L1084.10 389.00 L1081.15 384.33 L1080.02 379.67 L1078.41 376.67 L1078.04 370.33 L1078.54 364.33 L1080.20 360.00 L1081.12 355.00 L1082.67 352.65 L1083.66 350.00 L1085.58 347.33 L1086.62 345.00 L1092.59 339.33 L1095.09 338.00 L1096.67 336.57 L1099.01 335.33 L1100.67 333.89 L1104.02 333.00 L1108.00 330.85 L1111.33 330.28 L1114.67 328.71 L1116.33 328.27 L1130.00 327.41 L1146.00 328.25 L1148.33 328.71 L1151.00 330.22 L1155.55 331.33 L1158.67 333.15 L1161.33 333.41 L1164.33 332.89 L1166.67 331.23 L1169.67 330.12 L1172.88 328.33 L1181.33 327.67 L1187.37 326.33 Z M1254.50 326.33 L1256.33 326.38 L1263.61 327.67 L1271.67 328.18 L1273.39 328.67 L1276.33 330.20 L1281.00 331.07 L1284.00 332.96 L1286.00 333.81 L1290.34 336.67 L1293.37 339.67 L1294.64 342.33 L1296.15 344.33 L1297.06 347.67 L1298.67 350.35 L1299.13 351.67 L1301.34 369.00 L1301.61 382.00 L1301.34 408.67 L1302.18 423.33 L1303.18 425.00 L1304.33 426.06 L1308.67 427.97 L1310.67 428.34 L1316.33 427.31 L1317.33 427.86 L1317.78 429.00 L1317.57 432.00 L1317.01 433.33 L1316.20 434.00 L1313.67 435.11 L1311.33 437.13 L1308.67 437.74 L1306.67 439.36 L1305.33 439.87 L1298.33 441.03 L1293.67 442.11 L1291.33 442.22 L1288.33 441.93 L1285.00 440.51 L1282.33 439.92 L1281.18 439.33 L1278.64 437.00 L1275.96 434.00 L1272.39 427.67 L1271.67 426.94 L1271.00 426.85 L1270.33 427.13 L1269.00 428.76 L1266.00 431.32 L1262.94 432.67 L1261.67 434.16 L1258.67 436.62 L1257.67 437.17 L1255.00 437.91 L1252.68 439.67 L1248.00 440.37 L1245.00 441.79 L1243.67 442.09 L1234.67 442.46 L1229.67 442.34 L1228.06 442.00 L1224.33 440.34 L1219.50 439.67 L1214.73 437.00 L1213.18 435.33 L1209.76 432.67 L1206.68 431.00 L1205.42 428.00 L1203.66 425.67 L1202.96 422.33 L1201.67 419.19 L1201.10 417.00 L1200.90 412.00 L1201.22 407.00 L1202.92 403.67 L1203.95 399.33 L1205.48 397.33 L1206.67 395.05 L1209.08 392.33 L1213.33 388.82 L1214.67 387.24 L1217.35 386.00 L1220.00 384.29 L1223.37 383.67 L1226.00 381.78 L1231.00 381.01 L1233.67 379.55 L1235.37 379.00 L1242.00 378.20 L1245.55 376.33 L1252.33 375.58 L1255.00 373.87 L1260.67 372.72 L1264.67 371.12 L1268.67 370.46 L1269.49 370.00 L1269.97 369.33 L1270.33 367.00 L1269.79 356.67 L1269.36 355.33 L1267.84 353.33 L1266.88 350.67 L1263.33 346.84 L1259.95 344.67 L1257.00 343.59 L1254.67 342.01 L1253.33 341.67 L1248.33 341.51 L1244.33 341.82 L1241.33 343.40 L1238.01 344.33 L1235.33 346.14 L1231.00 347.13 L1229.33 348.80 L1225.63 351.33 L1222.67 352.52 L1221.33 353.98 L1218.67 355.47 L1213.33 359.69 L1210.67 360.66 L1209.00 360.87 L1207.33 360.45 L1206.33 359.20 L1206.09 357.33 L1206.24 352.67 L1208.17 348.67 L1209.04 345.67 L1211.87 342.00 L1215.00 339.02 L1218.80 336.67 L1221.70 335.67 L1223.67 334.16 L1227.67 332.74 L1230.00 331.14 L1234.33 330.20 L1236.67 328.24 L1249.00 327.69 L1254.50 326.33 Z M827.92 327.00 L831.00 326.71 L835.00 327.73 L842.33 328.23 L843.67 328.64 L846.33 330.13 L852.00 331.32 L856.00 333.87 L857.59 335.33 L859.66 336.67 L863.67 340.88 L865.21 343.33 L866.90 345.33 L867.80 349.67 L869.47 353.00 L869.98 357.00 L870.47 370.00 L870.10 415.00 L870.24 419.67 L870.60 422.00 L872.67 425.43 L874.33 426.60 L877.00 427.17 L886.67 426.88 L887.67 427.42 L888.08 428.67 L887.96 430.00 L887.33 431.03 L884.33 432.42 L879.67 436.78 L877.00 438.04 L875.00 439.44 L873.67 439.88 L870.33 440.28 L865.33 441.76 L861.00 442.17 L858.67 441.94 L853.67 440.17 L850.00 439.59 L846.69 437.00 L845.33 435.11 L844.00 433.92 L843.36 432.67 L842.33 428.44 L841.00 427.13 L839.67 426.62 L838.67 426.97 L837.33 428.74 L834.66 431.33 L831.04 434.00 L827.29 436.67 L824.33 437.98 L821.65 439.67 L817.60 440.33 L813.67 441.88 L811.67 442.22 L804.33 442.52 L798.67 442.19 L793.67 440.37 L787.07 439.33 L782.67 436.98 L779.00 433.86 L774.67 429.40 L773.51 426.67 L771.85 424.00 L769.91 414.33 L770.00 412.62 L771.19 409.00 L771.67 404.33 L772.24 403.00 L773.56 401.33 L774.41 398.33 L776.00 396.54 L777.36 394.00 L781.67 389.97 L785.37 387.00 L788.33 385.83 L790.33 384.39 L794.00 383.51 L796.67 381.62 L801.33 380.94 L805.33 378.84 L811.67 378.19 L815.00 376.35 L821.85 375.67 L825.67 373.81 L829.67 373.12 L833.00 371.42 L837.33 370.55 L838.64 369.67 L839.86 368.33 L840.55 366.33 L840.15 360.67 L838.67 356.98 L837.90 353.33 L837.45 352.33 L836.09 351.00 L834.64 348.67 L833.67 347.64 L830.67 346.05 L829.21 344.33 L826.68 343.33 L824.00 341.81 L821.00 341.44 L815.00 341.51 L813.05 342.00 L810.39 343.67 L805.67 344.54 L803.58 346.00 L800.67 347.40 L799.14 348.67 L796.33 349.73 L794.33 351.40 L791.00 352.52 L789.67 353.98 L786.00 356.84 L783.67 358.18 L782.00 359.53 L780.33 359.99 L778.33 359.76 L777.33 359.18 L776.87 358.00 L776.74 355.67 L777.04 350.33 L779.82 344.33 L781.40 342.33 L782.36 340.00 L783.33 338.96 L787.09 336.67 L791.33 335.47 L793.67 333.78 L797.33 332.91 L799.67 331.10 L804.67 330.22 L806.85 328.67 L808.33 328.23 L827.92 327.00 Z M1460.83 327.67 L1475.00 328.26 L1476.67 328.74 L1479.00 330.16 L1484.00 331.12 L1486.67 333.01 L1490.33 334.12 L1492.00 335.58 L1493.67 336.43 L1498.33 340.37 L1501.33 343.77 L1502.40 345.67 L1503.87 347.00 L1506.76 350.67 L1507.58 353.67 L1509.63 357.00 L1510.33 361.64 L1511.67 364.69 L1512.31 368.00 L1512.55 378.00 L1512.11 382.00 L1511.67 382.89 L1511.00 383.46 L1509.67 383.89 L1507.67 384.06 L1446.33 383.99 L1437.00 384.06 L1434.67 384.51 L1433.51 385.33 L1432.98 386.67 L1432.82 388.67 L1433.34 392.33 L1434.87 396.00 L1435.88 401.00 L1437.33 403.01 L1438.61 406.67 L1441.33 410.22 L1446.67 415.58 L1448.00 416.39 L1450.00 418.19 L1452.68 419.33 L1455.26 421.00 L1460.33 421.95 L1464.00 423.22 L1466.33 423.53 L1471.33 423.78 L1477.67 423.58 L1479.33 423.31 L1484.00 421.81 L1491.33 420.86 L1494.67 419.07 L1497.67 418.12 L1500.33 416.37 L1503.00 415.61 L1505.33 413.52 L1507.67 412.60 L1508.33 412.55 L1509.11 413.00 L1509.62 414.00 L1509.63 415.00 L1507.87 417.33 L1507.33 419.67 L1506.43 421.33 L1504.10 424.00 L1495.67 431.51 L1493.67 432.47 L1491.33 434.15 L1488.77 435.33 L1486.98 436.67 L1482.35 438.00 L1479.54 439.67 L1473.67 440.32 L1470.33 441.47 L1464.67 442.01 L1456.67 441.91 L1450.00 441.06 L1447.33 441.27 L1443.67 440.28 L1437.33 439.73 L1436.33 439.36 L1434.00 437.78 L1430.67 436.99 L1428.71 435.33 L1426.00 434.09 L1424.00 432.39 L1422.33 431.55 L1418.42 428.33 L1414.84 425.00 L1413.33 422.48 L1409.15 417.67 L1408.19 414.67 L1406.35 412.33 L1405.67 407.56 L1404.12 404.67 L1403.65 403.00 L1403.11 395.00 L1402.24 388.33 L1402.20 385.00 L1402.90 380.67 L1403.73 370.67 L1405.62 366.33 L1406.39 361.33 L1408.15 359.33 L1409.46 356.00 L1411.00 354.04 L1412.00 352.05 L1413.43 350.33 L1414.67 347.76 L1417.31 344.67 L1418.67 343.64 L1423.00 338.99 L1426.15 336.67 L1428.67 335.40 L1430.67 333.74 L1434.00 332.91 L1436.67 330.94 L1441.33 330.16 L1444.67 328.46 L1453.33 327.81 L1460.83 327.67 Z M1053.75 328.00 L1055.33 328.17 L1056.15 328.67 L1056.58 329.33 L1056.76 330.67 L1057.05 349.33 L1056.98 415.00 L1057.20 419.67 L1060.00 426.70 L1063.68 431.00 L1066.63 432.67 L1069.33 434.86 L1070.65 438.00 L1070.62 439.00 L1069.95 439.67 L1068.33 439.99 L1015.33 439.66 L1014.67 439.29 L1014.11 438.33 L1014.07 436.33 L1014.53 435.00 L1017.00 432.54 L1018.33 431.99 L1020.33 431.65 L1021.31 431.00 L1023.98 428.33 L1025.29 425.00 L1026.67 423.25 L1027.10 421.67 L1027.39 415.00 L1027.34 362.33 L1027.05 354.67 L1026.45 352.67 L1021.33 344.72 L1020.67 344.27 L1018.00 343.72 L1017.11 343.00 L1016.83 342.00 L1017.22 340.00 L1019.59 337.00 L1020.67 336.23 L1027.33 335.59 L1030.67 333.71 L1035.74 333.00 L1039.33 331.04 L1045.67 330.31 L1050.00 328.53 L1053.75 328.00 Z M893.83 330.67 L930.67 330.57 L937.00 330.83 L938.00 331.12 L938.67 331.65 L939.21 333.67 L939.07 334.67 L938.67 335.26 L937.67 335.82 L935.67 336.15 L934.67 336.60 L933.34 338.00 L930.67 339.74 L928.67 342.26 L928.20 347.67 L928.74 352.67 L929.20 354.00 L930.89 356.67 L931.91 360.33 L933.49 362.67 L934.56 366.33 L936.07 368.67 L937.00 372.35 L938.76 375.00 L939.91 379.00 L941.67 381.98 L942.40 385.33 L944.04 387.67 L945.12 391.33 L946.83 393.67 L947.93 398.33 L949.67 400.83 L950.33 404.44 L951.00 405.36 L952.00 405.69 L954.00 405.20 L954.96 404.00 L955.81 399.33 L957.73 396.00 L958.33 390.77 L960.11 388.67 L961.06 385.00 L962.92 382.33 L963.91 378.00 L965.73 375.33 L966.33 371.55 L968.25 368.33 L969.11 364.00 L970.85 361.33 L971.84 357.33 L973.81 353.33 L974.21 346.33 L973.70 342.67 L970.33 338.83 L963.64 335.33 L963.10 334.00 L963.86 331.67 L964.67 331.02 L966.00 330.80 L1007.00 330.59 L1009.33 330.89 L1010.48 331.67 L1010.62 333.33 L1009.90 334.67 L1009.00 335.39 L1006.67 336.51 L1005.00 337.91 L1002.33 338.98 L1001.39 339.67 L996.13 345.67 L993.14 349.67 L992.00 351.89 L990.50 353.67 L989.45 357.33 L988.00 359.35 L987.00 362.35 L984.83 366.00 L984.22 369.33 L982.42 371.67 L981.67 374.77 L979.86 377.00 L978.88 380.33 L977.02 382.67 L976.31 385.67 L974.41 388.00 L973.62 392.00 L971.85 394.67 L970.67 398.50 L968.93 400.67 L968.11 403.67 L966.33 406.08 L965.44 409.00 L963.91 411.00 L962.75 414.67 L961.02 416.67 L960.26 420.00 L958.30 422.67 L957.67 425.82 L956.00 428.38 L954.98 431.67 L953.33 434.00 L952.00 438.08 L951.33 439.07 L948.67 441.32 L947.33 441.44 L942.00 440.76 L938.00 441.32 L935.33 440.14 L934.33 439.30 L931.96 435.67 L930.93 432.33 L929.33 430.24 L928.12 426.33 L926.54 424.00 L925.52 420.67 L923.62 417.67 L922.82 414.67 L921.06 412.33 L920.26 408.67 L918.54 406.67 L917.61 403.00 L915.92 400.67 L914.87 397.00 L912.82 393.67 L912.04 390.67 L910.33 388.14 L909.66 385.00 L907.81 382.67 L906.79 378.67 L904.95 375.67 L904.05 372.00 L902.32 369.67 L901.67 366.50 L899.89 364.00 L898.87 360.67 L897.23 358.67 L896.23 355.33 L894.39 352.67 L893.41 349.33 L892.00 347.35 L890.67 344.72 L885.10 339.67 L884.00 339.07 L879.67 337.85 L876.51 335.67 L875.89 334.67 L876.03 333.67 L877.00 332.15 L877.88 331.33 L879.00 330.83 L893.83 330.67 Z M1127.42 340.33 L1131.00 340.32 L1137.33 341.60 L1141.67 344.38 L1143.99 346.67 L1146.81 350.67 L1147.70 354.00 L1149.33 357.06 L1149.80 358.67 L1149.99 375.67 L1149.86 378.00 L1149.36 380.00 L1147.78 382.33 L1146.91 385.33 L1144.00 388.91 L1140.97 391.67 L1138.33 392.54 L1135.67 394.23 L1134.33 394.52 L1124.33 394.59 L1122.00 393.84 L1117.89 391.33 L1115.87 389.33 L1112.90 385.67 L1112.04 382.67 L1110.32 380.00 L1109.56 375.00 L1108.34 370.67 L1107.99 366.67 L1108.33 362.38 L1109.55 359.00 L1110.35 353.67 L1112.12 351.33 L1113.25 348.33 L1116.34 344.67 L1118.71 343.33 L1120.67 341.82 L1122.67 341.15 L1127.42 340.33 Z M1457.58 341.00 L1461.33 340.85 L1468.67 341.95 L1474.67 347.03 L1477.33 350.06 L1477.82 351.00 L1478.35 353.33 L1480.01 355.67 L1480.51 357.33 L1481.48 367.33 L1481.39 368.67 L1480.75 370.00 L1479.67 371.03 L1478.33 371.46 L1468.33 371.53 L1454.33 372.79 L1438.33 373.37 L1435.67 373.26 L1433.90 372.67 L1433.28 372.00 L1432.87 370.67 L1433.00 367.30 L1434.99 362.67 L1435.58 358.67 L1437.51 356.00 L1438.58 352.67 L1440.00 351.53 L1442.33 348.28 L1445.33 345.93 L1446.89 344.33 L1449.33 343.49 L1452.67 341.50 L1457.58 341.00 Z M1268.20 383.00 L1269.00 382.89 L1269.67 383.26 L1270.99 384.67 L1271.42 385.67 L1270.45 391.00 L1270.39 408.33 L1269.91 414.33 L1269.47 415.33 L1266.33 418.43 L1263.33 420.79 L1260.33 421.73 L1257.67 423.32 L1256.30 423.67 L1251.67 424.02 L1245.00 423.84 L1243.35 423.33 L1238.94 421.00 L1235.67 417.37 L1233.40 413.33 L1232.89 411.33 L1232.83 407.33 L1233.09 404.67 L1235.85 398.33 L1238.33 395.29 L1241.33 392.56 L1244.56 391.33 L1246.67 389.67 L1249.80 389.00 L1252.33 387.23 L1253.33 386.83 L1258.00 386.28 L1262.06 384.33 L1266.33 383.81 L1268.20 383.00 Z M836.63 384.00 L838.33 383.83 L839.67 384.14 L840.42 385.00 L840.66 386.33 L840.71 398.67 L840.38 409.33 L839.93 411.33 L837.67 415.54 L834.67 417.96 L830.00 420.96 L827.32 422.00 L825.33 423.14 L823.33 423.76 L818.00 424.00 L813.33 423.75 L812.22 423.33 L810.32 422.00 L807.00 420.53 L804.33 417.61 L803.79 416.67 L803.25 413.67 L802.90 409.00 L803.59 401.33 L804.06 400.33 L805.33 398.96 L806.67 395.94 L807.67 395.11 L810.30 394.00 L812.06 392.33 L814.71 391.33 L817.00 389.81 L821.33 389.08 L824.67 387.07 L829.00 386.30 L830.67 384.76 L831.56 384.33 L836.63 384.00 Z M1109.36 438.67 L1111.33 438.44 L1114.17 439.33 L1117.00 439.71 L1138.67 440.37 L1143.33 440.98 L1146.33 441.69 L1158.67 443.17 L1162.89 446.00 L1165.67 449.33 L1166.13 452.00 L1166.18 454.67 L1165.99 459.33 L1165.48 461.33 L1162.87 465.67 L1159.67 468.84 L1156.67 470.02 L1154.59 471.67 L1150.67 472.49 L1146.67 474.28 L1142.00 474.65 L1125.33 474.46 L1123.67 474.02 L1120.10 472.33 L1116.33 471.85 L1113.67 470.01 L1110.67 468.89 L1107.33 465.95 L1105.00 463.49 L1102.67 459.41 L1102.20 458.00 L1101.88 452.33 L1102.40 447.00 L1103.98 445.00 L1105.67 441.89 L1107.67 439.85 L1109.36 438.67 Z M1048.25 491.00 L1050.33 490.69 L1052.68 491.00 L1053.67 492.09 L1054.41 495.00 L1054.85 557.33 L1054.66 566.33 L1054.81 610.67 L1055.25 622.33 L1055.86 627.67 L1056.48 632.33 L1056.96 633.67 L1062.67 639.49 L1064.86 640.67 L1066.07 641.67 L1066.89 643.00 L1066.94 644.00 L1066.32 645.00 L1064.67 645.39 L1018.67 645.45 L1016.99 644.67 L1016.70 643.67 L1017.00 642.85 L1018.33 641.46 L1021.33 639.42 L1024.03 637.00 L1026.72 633.67 L1027.21 632.00 L1027.55 615.67 L1027.39 522.33 L1026.98 514.00 L1026.44 512.33 L1024.00 508.94 L1021.96 507.00 L1017.92 504.67 L1014.67 503.52 L1014.12 502.67 L1014.18 501.00 L1014.66 499.67 L1015.67 499.01 L1023.33 498.39 L1025.67 497.75 L1028.67 496.25 L1036.33 495.54 L1039.00 493.82 L1044.75 493.00 L1048.25 491.00 Z M1185.04 491.00 L1188.00 490.80 L1189.33 491.51 L1189.82 493.00 L1190.27 497.00 L1190.10 553.67 L1190.37 556.00 L1191.00 557.13 L1192.00 557.46 L1194.33 556.81 L1199.33 552.60 L1202.33 551.44 L1204.67 549.54 L1207.33 548.89 L1210.00 547.07 L1213.33 546.05 L1214.99 544.67 L1215.83 544.33 L1227.33 543.88 L1237.67 544.15 L1239.33 544.39 L1242.00 546.04 L1245.00 546.91 L1247.00 548.71 L1250.33 550.16 L1253.55 553.00 L1255.94 556.67 L1257.01 559.00 L1258.99 561.00 L1259.86 565.00 L1261.22 568.33 L1261.72 572.67 L1261.68 615.67 L1262.21 631.00 L1262.67 632.18 L1265.78 636.33 L1268.67 638.01 L1270.65 639.67 L1273.33 640.66 L1274.33 641.37 L1274.94 642.33 L1275.13 643.33 L1274.95 644.33 L1274.33 644.97 L1272.33 645.40 L1223.00 645.37 L1221.33 645.12 L1220.33 644.42 L1220.10 643.67 L1220.29 642.67 L1221.59 641.00 L1222.67 640.35 L1225.62 639.33 L1229.34 636.67 L1231.93 632.33 L1232.37 631.00 L1232.73 625.67 L1232.79 609.67 L1232.52 576.67 L1232.00 574.19 L1229.48 568.67 L1223.67 563.06 L1217.31 560.67 L1212.33 559.90 L1207.00 560.23 L1204.35 562.00 L1200.00 563.45 L1196.17 566.33 L1193.31 570.00 L1191.92 572.67 L1190.63 574.33 L1190.33 575.33 L1190.41 624.00 L1190.71 627.33 L1191.18 629.67 L1193.29 636.00 L1194.33 636.99 L1200.33 640.94 L1201.13 642.67 L1200.91 644.33 L1199.67 645.18 L1198.33 645.39 L1155.00 645.30 L1152.97 645.00 L1151.94 644.33 L1151.83 643.00 L1152.74 641.00 L1155.33 639.27 L1157.33 637.53 L1160.49 633.67 L1162.56 623.33 L1162.69 537.00 L1162.45 519.33 L1162.96 514.33 L1162.33 512.20 L1160.33 509.32 L1158.67 507.60 L1153.12 504.33 L1151.33 503.84 L1148.67 503.84 L1147.88 503.00 L1147.80 502.00 L1148.33 500.68 L1149.71 499.67 L1153.67 498.81 L1159.33 498.22 L1166.00 496.63 L1171.67 495.88 L1176.33 493.98 L1181.15 493.00 L1183.33 491.51 L1185.04 491.00 Z M822.29 499.00 L823.67 499.12 L824.67 499.82 L826.01 502.00 L825.86 503.00 L825.05 503.67 L822.78 504.67 L821.33 506.07 L818.67 507.27 L814.67 509.93 L812.00 512.45 L809.00 515.93 L807.90 518.67 L806.46 520.67 L805.38 524.33 L803.83 526.67 L802.79 531.33 L800.90 535.33 L800.25 539.67 L798.31 542.67 L797.58 547.67 L795.80 550.33 L794.91 555.33 L793.10 558.33 L792.33 562.00 L790.33 565.68 L789.75 570.00 L787.63 574.00 L787.12 578.00 L786.55 579.67 L784.88 582.67 L784.04 587.33 L782.33 590.32 L781.71 594.00 L779.63 598.00 L779.06 601.67 L777.12 605.00 L776.26 609.67 L774.23 613.67 L773.67 617.62 L771.74 620.67 L771.08 625.33 L769.13 628.67 L768.66 630.33 L768.33 633.33 L766.35 636.67 L765.55 644.00 L763.00 647.21 L761.33 647.84 L749.33 647.49 L748.33 647.10 L746.33 645.66 L745.11 644.33 L744.19 640.67 L742.37 637.33 L741.67 632.67 L739.98 629.67 L739.01 625.00 L737.29 622.67 L736.20 617.33 L734.39 614.67 L733.69 609.67 L731.83 606.67 L730.99 601.67 L729.09 599.00 L728.05 594.00 L726.42 591.33 L725.65 586.33 L723.74 583.00 L722.83 577.67 L721.00 574.88 L720.20 570.33 L718.23 565.67 L717.38 558.33 L716.00 556.72 L714.33 556.11 L713.33 556.65 L712.72 558.00 L712.21 561.67 L710.58 564.67 L709.59 569.33 L707.63 573.67 L707.09 577.67 L705.13 581.67 L704.15 586.33 L702.27 590.00 L701.49 595.00 L699.56 598.33 L699.15 602.00 L697.00 606.19 L696.31 609.67 L694.44 612.67 L693.68 617.67 L691.83 621.00 L691.00 626.31 L688.90 630.33 L688.37 633.67 L686.22 638.00 L685.68 641.67 L685.00 643.25 L682.67 646.72 L681.82 647.33 L680.67 647.66 L669.00 647.78 L667.78 647.33 L666.17 646.00 L664.82 644.00 L664.12 641.00 L662.46 639.00 L661.59 634.33 L659.85 631.67 L658.90 627.33 L657.04 624.33 L656.28 619.67 L654.34 616.00 L653.67 612.15 L651.72 609.33 L651.11 605.67 L649.04 601.67 L648.41 598.33 L646.33 594.24 L645.67 590.45 L643.84 587.33 L642.82 582.67 L641.12 580.00 L640.19 575.00 L638.34 572.33 L637.67 568.33 L635.96 565.33 L634.87 560.33 L633.15 557.33 L632.37 552.67 L630.37 549.00 L629.67 544.98 L627.83 542.33 L626.90 537.67 L625.06 535.00 L624.22 530.67 L622.42 527.67 L621.67 523.52 L619.96 521.00 L618.87 517.00 L617.00 514.21 L616.00 512.17 L613.67 509.86 L610.67 508.44 L608.02 506.67 L601.67 503.69 L601.02 502.67 L601.18 502.00 L602.00 501.09 L604.33 499.86 L609.67 499.25 L619.00 499.68 L629.00 499.45 L637.00 499.62 L643.33 500.18 L653.00 499.70 L656.00 499.87 L660.33 499.17 L661.28 499.67 L661.76 500.67 L662.03 502.33 L661.89 503.33 L661.33 504.31 L659.67 505.83 L657.00 507.26 L655.33 508.75 L652.67 510.32 L651.83 511.67 L651.26 516.33 L651.66 522.33 L652.19 524.00 L653.67 526.39 L654.33 530.02 L656.00 533.06 L657.34 539.00 L659.02 542.00 L659.96 545.33 L661.65 548.00 L662.38 553.00 L664.27 556.00 L665.00 559.18 L666.54 560.67 L667.08 561.67 L667.78 566.67 L669.59 569.00 L670.49 573.67 L672.17 576.33 L673.11 580.67 L675.00 583.52 L675.75 588.00 L677.67 591.44 L678.39 596.00 L680.23 598.67 L680.72 601.67 L681.28 603.33 L682.00 603.96 L682.67 604.03 L684.67 603.16 L685.81 601.67 L686.35 597.33 L688.34 593.67 L689.00 589.88 L691.09 585.33 L691.95 579.00 L693.67 575.88 L694.51 571.67 L696.12 569.00 L696.90 564.33 L699.00 560.44 L699.88 555.67 L701.63 552.67 L702.38 548.00 L704.35 544.67 L705.06 539.67 L707.00 536.26 L708.22 529.00 L708.24 527.00 L707.28 519.33 L706.83 518.00 L705.27 515.33 L704.17 511.33 L703.33 510.18 L700.00 507.43 L694.67 504.59 L694.02 503.67 L693.77 502.67 L694.33 500.32 L695.00 499.52 L696.00 499.21 L732.33 500.09 L739.67 499.47 L741.67 499.60 L743.00 500.08 L744.00 500.99 L744.47 502.00 L744.54 503.00 L744.11 504.00 L738.33 508.68 L735.67 510.25 L734.38 512.00 L734.08 514.00 L734.24 521.33 L736.31 526.00 L736.96 529.67 L738.77 533.00 L739.78 538.67 L741.74 542.33 L742.33 546.52 L744.35 550.33 L744.92 554.00 L746.98 558.00 L747.81 561.67 L749.63 565.33 L750.33 569.85 L752.05 572.67 L753.00 577.35 L755.00 580.98 L755.67 585.48 L757.49 588.67 L758.33 593.61 L760.15 597.00 L761.15 603.33 L762.00 604.63 L764.00 606.74 L764.67 607.09 L765.33 606.78 L765.72 606.00 L766.33 598.85 L768.22 595.67 L769.02 591.00 L770.92 587.33 L771.52 582.67 L773.60 579.33 L774.33 574.00 L776.29 570.00 L777.00 565.69 L778.94 561.33 L779.67 556.00 L781.67 551.77 L782.33 546.65 L784.27 542.33 L785.01 536.67 L786.67 533.08 L787.91 527.00 L789.37 524.00 L789.87 521.67 L789.92 514.33 L789.60 512.67 L785.33 507.55 L781.33 504.47 L778.91 503.67 L778.00 503.04 L777.72 502.33 L778.08 501.33 L779.53 499.67 L780.67 499.17 L783.67 499.91 L808.00 499.64 L812.67 499.99 L815.67 499.56 L820.33 499.44 L822.29 499.00 Z M1110.02 517.67 L1111.67 517.43 L1113.33 517.76 L1114.39 518.33 L1114.90 519.33 L1114.53 524.33 L1114.49 545.33 L1114.94 547.33 L1115.68 548.67 L1116.67 549.28 L1117.67 549.36 L1127.00 548.51 L1130.67 547.49 L1138.33 548.07 L1142.00 548.01 L1143.67 548.73 L1144.45 550.00 L1144.75 551.33 L1144.43 557.00 L1143.79 558.67 L1142.67 559.43 L1139.33 559.73 L1133.00 559.46 L1119.67 559.59 L1117.33 559.31 L1115.67 559.96 L1114.68 561.33 L1114.74 611.67 L1115.31 621.33 L1115.89 624.00 L1117.33 626.47 L1118.69 629.67 L1122.30 633.33 L1124.33 634.49 L1132.67 635.09 L1137.33 634.83 L1140.67 634.40 L1143.33 633.10 L1144.67 632.82 L1146.00 633.15 L1146.44 634.00 L1146.30 635.33 L1145.58 636.67 L1142.41 639.33 L1140.33 640.52 L1138.63 642.00 L1135.33 643.13 L1132.67 645.06 L1126.33 645.99 L1123.17 647.33 L1121.00 647.78 L1107.00 647.90 L1104.67 647.75 L1103.09 647.33 L1101.33 645.95 L1097.67 644.82 L1094.67 642.26 L1093.33 640.57 L1091.88 639.33 L1089.44 635.33 L1088.76 633.33 L1088.00 628.42 L1086.71 625.67 L1086.51 624.33 L1086.27 608.00 L1086.36 561.00 L1085.67 559.75 L1084.33 559.11 L1082.00 559.19 L1079.33 558.77 L1076.33 559.21 L1073.00 558.51 L1071.04 557.33 L1070.33 555.33 L1070.44 553.67 L1070.93 552.67 L1074.28 550.33 L1076.67 549.63 L1083.67 548.72 L1085.13 548.00 L1086.34 546.00 L1087.12 543.67 L1088.67 533.00 L1089.33 531.46 L1092.55 528.33 L1094.67 527.43 L1098.33 525.13 L1100.65 523.00 L1103.00 521.84 L1104.67 520.50 L1107.40 519.33 L1110.02 517.67 Z M847.17 544.00 L857.67 543.93 L867.14 544.33 L871.00 545.99 L875.33 547.10 L877.83 548.67 L880.33 549.81 L882.67 551.53 L884.88 552.33 L890.66 558.33 L893.33 561.65 L894.33 564.40 L896.20 567.00 L897.26 571.00 L899.21 575.00 L900.75 589.67 L899.34 593.33 L898.67 594.04 L897.67 594.50 L895.33 594.79 L834.67 594.70 L831.98 595.00 L830.59 596.00 L830.03 598.67 L830.40 604.00 L832.31 608.33 L833.04 612.00 L835.00 614.54 L835.89 617.33 L837.33 618.84 L838.67 620.90 L841.33 623.49 L843.00 624.54 L844.67 626.18 L847.33 627.17 L850.00 628.98 L855.67 629.91 L861.33 631.76 L866.00 631.91 L871.67 631.61 L876.67 629.80 L882.33 628.81 L884.72 627.33 L887.67 626.17 L889.96 624.33 L892.33 623.57 L894.67 621.29 L895.67 621.34 L896.25 622.00 L896.61 623.33 L896.43 625.00 L894.49 628.33 L893.61 631.00 L887.33 636.97 L884.00 639.34 L881.67 640.40 L879.33 642.35 L876.61 643.00 L873.33 644.90 L868.67 645.63 L865.33 647.19 L863.33 647.62 L849.00 648.00 L840.67 647.61 L839.33 647.28 L836.33 645.77 L831.00 645.03 L829.00 643.23 L825.67 641.78 L824.03 640.33 L822.33 639.39 L821.33 638.20 L817.77 635.33 L814.67 631.99 L813.47 630.00 L811.83 628.33 L810.82 626.33 L809.00 623.80 L807.96 620.67 L806.39 618.00 L805.41 612.67 L803.91 610.00 L803.54 608.67 L803.12 599.33 L803.70 583.67 L804.00 582.62 L805.62 579.67 L806.33 575.28 L808.14 572.67 L809.05 569.33 L810.83 567.33 L812.04 564.67 L814.33 561.26 L820.00 555.32 L821.80 554.00 L823.00 552.71 L826.30 551.33 L827.77 550.00 L829.67 548.92 L831.67 547.31 L837.00 546.17 L841.00 544.37 L847.17 544.00 Z M949.42 544.00 L958.67 543.72 L973.33 544.41 L976.33 545.99 L980.33 547.06 L982.67 548.90 L985.33 550.08 L989.25 552.67 L992.00 556.06 L993.33 558.95 L994.96 561.00 L996.00 565.10 L997.53 568.00 L997.86 570.00 L997.98 623.00 L998.39 629.00 L1000.97 635.33 L1002.00 636.53 L1004.67 637.31 L1010.00 637.17 L1011.33 637.47 L1012.33 638.05 L1012.66 638.67 L1012.50 639.33 L1010.33 642.15 L1007.05 643.33 L1005.00 645.05 L1000.67 645.66 L996.33 647.47 L991.67 647.89 L984.67 647.63 L983.33 647.24 L977.67 644.32 L974.43 639.67 L973.67 636.40 L972.97 635.00 L971.33 633.45 L970.00 633.09 L969.04 633.67 L964.41 639.00 L961.49 640.67 L960.00 642.08 L956.00 644.68 L951.33 645.99 L949.00 647.49 L943.67 647.96 L931.00 647.83 L928.31 647.33 L925.67 645.77 L921.67 644.56 L918.49 642.00 L917.49 640.67 L916.00 639.51 L913.00 636.21 L911.98 633.67 L910.33 631.38 L909.40 626.33 L907.88 623.33 L907.69 621.33 L907.92 618.67 L908.33 617.17 L909.58 615.00 L910.38 611.00 L911.95 608.67 L913.00 606.35 L918.33 600.60 L920.00 599.54 L921.67 598.01 L924.67 596.71 L926.67 595.04 L930.33 594.04 L932.82 592.33 L939.00 591.58 L942.33 589.78 L948.33 588.98 L951.67 587.17 L957.67 586.41 L962.67 584.51 L969.33 583.72 L970.33 583.25 L971.04 582.33 L971.42 576.67 L971.22 572.33 L970.56 569.33 L968.00 565.47 L965.67 562.77 L963.67 560.99 L960.37 559.33 L958.00 557.58 L956.33 557.02 L952.33 556.83 L946.33 557.45 L944.33 557.93 L942.00 559.39 L939.00 560.46 L936.67 562.04 L934.00 563.18 L932.00 564.71 L925.86 568.33 L924.00 569.81 L921.63 571.00 L919.33 573.01 L917.33 573.28 L916.33 572.85 L915.61 572.00 L915.15 570.33 L915.06 568.00 L915.14 564.67 L915.72 560.33 L916.33 558.74 L919.00 555.36 L923.33 552.47 L925.33 551.59 L927.06 550.00 L930.33 548.96 L934.00 546.90 L938.67 546.21 L943.00 544.37 L949.42 544.00 Z M848.06 555.00 L855.33 554.70 L858.00 555.07 L859.67 555.70 L863.33 557.80 L864.95 559.33 L866.90 560.67 L869.67 565.43 L870.59 569.00 L871.76 571.00 L872.33 572.67 L872.65 576.33 L872.69 582.00 L872.47 583.00 L872.00 583.60 L870.33 584.09 L832.33 584.06 L831.00 583.84 L830.34 583.33 L830.04 582.33 L830.21 581.00 L832.18 576.33 L833.14 570.67 L834.82 568.00 L836.00 565.27 L837.46 563.33 L838.56 561.00 L842.33 558.08 L845.20 556.67 L846.67 555.51 L848.06 555.00 Z M967.38 594.67 L969.00 594.55 L970.33 594.83 L971.17 595.67 L971.54 597.33 L971.21 618.67 L970.67 620.52 L968.46 623.67 L966.19 626.00 L962.46 628.67 L958.67 629.96 L957.33 631.02 L956.00 631.61 L953.33 631.89 L948.67 631.86 L942.67 628.96 L939.89 625.67 L938.76 622.67 L937.49 620.33 L936.99 618.33 L937.08 614.67 L938.67 611.56 L940.02 607.67 L944.00 603.55 L947.33 601.81 L949.00 600.54 L951.96 599.67 L955.00 597.83 L959.33 596.98 L962.67 595.51 L967.38 594.67 Z" fill="#ffffff" fill-rule="evenodd" clip-rule="evenodd" />
</svg>
