<?xml version="1.0" encoding="UTF-8"?>
<svg xmlns="http://www.w3.org/2000/svg" width="622" height="838" viewBox="0 0 622 838" fill="none" shape-rendering="geometricPrecision">
  <defs><linearGradient id="navigateWealthIconOnlyPrimaryGradient" x1="23%" y1="8%" x2="78%" y2="88%">
      <stop offset="0%" stop-color="#000000" />
      <stop offset="55%" stop-color="#754ab0" />
      <stop offset="100%" stop-color="#843dcf" />
    </linearGradient></defs>
  <path d="M128.12 71.33 L129.00 71.01 L130.33 71.34 L135.33 75.51 L138.23 76.67 L141.33 79.38 L142.33 80.71 L143.98 82.00 L145.33 83.53 L147.57 84.67 L149.18 86.00 L151.33 87.22 L156.11 91.67 L157.67 92.62 L159.00 94.05 L164.67 98.10 L166.33 99.60 L168.00 100.57 L175.00 107.47 L186.55 116.67 L193.02 123.33 L197.33 127.11 L198.56 128.67 L203.06 132.67 L209.55 139.33 L211.65 140.67 L213.33 142.23 L226.08 155.00 L231.33 159.88 L238.67 168.77 L245.33 175.45 L249.38 181.33 L252.17 184.67 L261.33 194.42 L262.63 197.00 L265.33 200.59 L271.90 207.33 L273.33 209.71 L277.33 214.49 L278.58 216.67 L281.22 219.67 L282.76 221.00 L284.00 223.32 L285.67 225.42 L286.53 227.00 L288.01 228.33 L290.68 231.67 L292.28 234.67 L298.62 242.67 L302.56 249.00 L304.13 250.67 L307.91 257.00 L309.54 259.00 L310.40 261.33 L312.00 263.12 L313.33 265.60 L314.89 267.67 L315.82 269.67 L317.59 271.67 L318.57 274.67 L320.00 276.28 L321.00 278.22 L322.60 280.33 L323.98 283.33 L325.67 284.99 L326.67 287.65 L328.12 289.67 L329.11 291.67 L330.69 293.33 L331.84 296.33 L333.52 298.33 L334.67 301.22 L335.87 302.67 L337.17 305.33 L338.64 307.33 L339.67 310.01 L341.53 312.67 L342.33 315.08 L344.04 317.00 L345.00 320.11 L347.00 322.62 L347.83 325.33 L349.61 327.67 L350.59 330.67 L352.01 332.33 L353.31 335.33 L354.85 337.67 L355.70 339.67 L357.42 342.00 L358.54 345.33 L360.00 347.37 L361.02 350.33 L363.00 353.62 L363.90 356.33 L365.44 358.67 L366.54 362.33 L368.27 364.67 L369.20 368.00 L371.12 370.67 L371.79 373.67 L373.56 376.00 L374.42 379.33 L375.91 381.00 L377.10 384.67 L378.84 387.00 L379.65 390.00 L381.67 393.62 L382.51 397.33 L384.20 400.33 L385.10 403.67 L386.91 406.67 L388.04 410.33 L389.67 412.59 L390.33 416.12 L392.11 418.67 L393.00 422.24 L395.04 426.00 L395.71 429.33 L397.59 432.00 L398.25 435.67 L400.02 438.67 L401.00 443.35 L402.91 446.67 L404.06 451.00 L405.49 453.00 L406.42 457.33 L408.20 460.33 L409.00 463.90 L410.96 467.67 L411.85 472.00 L413.60 474.67 L414.33 479.40 L416.10 482.67 L417.17 487.67 L418.89 490.67 L419.78 495.33 L421.67 498.57 L422.41 504.00 L424.14 507.33 L424.98 512.33 L427.00 516.15 L427.84 521.33 L429.63 525.00 L430.33 531.12 L432.13 534.67 L433.06 541.00 L434.62 544.33 L435.04 546.00 L435.84 552.00 L437.74 556.67 L438.59 564.00 L440.31 568.00 L441.02 575.33 L442.84 579.67 L443.62 584.67 L445.15 588.00 L445.01 589.00 L444.33 589.85 L442.00 590.65 L428.33 590.80 L419.00 592.68 L403.33 593.62 L400.67 594.13 L395.67 595.66 L386.25 596.33 L384.67 596.76 L381.33 598.28 L375.33 599.05 L372.00 600.74 L365.00 601.61 L361.33 603.62 L357.00 604.38 L353.00 606.19 L348.67 606.84 L345.33 608.56 L343.67 609.12 L338.67 609.90 L335.33 611.77 L330.33 612.37 L327.33 614.30 L323.81 615.00 L320.33 616.88 L316.67 618.03 L314.00 619.41 L309.61 620.33 L306.33 622.22 L302.33 623.04 L299.00 624.88 L295.00 625.98 L293.00 627.43 L289.00 628.40 L286.67 629.93 L282.69 631.33 L279.98 633.00 L276.67 633.76 L273.75 635.67 L270.62 636.33 L268.33 637.89 L264.67 639.20 L262.00 640.90 L258.67 641.82 L255.74 643.67 L252.68 644.67 L250.33 646.15 L247.33 647.10 L245.00 648.86 L241.67 649.90 L239.35 651.67 L236.33 652.47 L234.33 654.10 L230.33 654.95 L227.33 656.87 L223.67 657.98 L221.67 659.46 L218.33 660.46 L215.67 662.26 L213.00 663.33 L210.33 664.89 L207.67 665.88 L205.33 667.55 L202.33 668.49 L200.14 670.00 L197.89 671.00 L195.33 672.62 L191.67 673.93 L189.47 675.67 L186.00 676.39 L183.33 678.31 L180.94 679.00 L178.33 680.84 L175.04 682.00 L173.33 683.47 L171.48 684.33 L169.67 685.71 L167.32 686.67 L165.67 688.40 L164.67 688.89 L164.00 688.63 L163.48 687.67 L163.39 686.33 L163.71 685.00 L165.67 682.40 L166.67 679.37 L170.84 673.67 L172.07 670.67 L173.67 668.17 L174.58 665.33 L176.00 663.12 L177.32 659.00 L179.00 656.65 L180.00 653.44 L181.67 651.39 L182.63 648.67 L184.05 646.67 L185.33 643.31 L186.84 641.00 L187.83 637.33 L189.62 635.00 L190.37 631.33 L192.20 628.33 L193.19 624.00 L194.86 621.33 L195.69 618.00 L197.67 614.06 L198.33 609.60 L200.33 605.67 L201.09 601.67 L203.19 597.67 L203.78 594.00 L205.67 590.35 L206.57 584.67 L208.31 581.00 L208.99 576.00 L211.08 571.67 L211.76 565.67 L213.66 561.67 L214.40 554.67 L216.01 551.00 L217.20 542.67 L219.01 537.67 L219.93 529.67 L221.73 525.33 L222.37 516.33 L223.89 512.00 L224.38 509.67 L224.98 497.00 L226.58 487.67 L227.10 483.00 L227.90 462.67 L229.11 449.67 L229.24 431.67 L228.21 418.67 L227.15 386.67 L226.62 383.00 L225.33 378.08 L224.07 358.67 L222.37 352.00 L221.67 342.03 L220.02 336.00 L219.14 324.67 L216.94 317.33 L216.27 308.33 L214.47 304.00 L213.56 297.00 L211.75 292.67 L211.02 285.67 L209.09 281.33 L208.17 275.33 L206.39 271.67 L205.53 265.00 L203.95 261.33 L202.69 254.33 L201.02 251.00 L200.40 245.67 L198.35 241.00 L197.71 236.00 L195.70 232.33 L195.00 228.19 L193.10 224.00 L192.27 219.67 L190.34 216.33 L189.67 211.02 L187.79 208.00 L186.87 203.33 L185.00 199.53 L184.18 195.00 L182.33 192.02 L181.72 188.67 L180.00 185.81 L178.91 181.00 L177.22 178.33 L176.17 174.33 L174.47 171.67 L173.69 167.67 L171.94 164.67 L170.93 160.00 L169.06 157.33 L168.26 154.33 L166.38 151.67 L165.78 148.33 L163.89 145.00 L163.00 140.98 L161.33 138.68 L160.02 135.00 L158.56 133.00 L157.82 130.33 L156.00 127.58 L154.99 124.33 L153.33 121.94 L152.00 117.95 L150.56 116.00 L149.67 113.74 L148.12 111.67 L146.88 108.33 L145.29 106.33 L144.14 103.00 L142.57 101.00 L141.67 98.25 L139.86 95.67 L139.00 92.96 L137.16 91.00 L136.15 87.67 L134.33 85.37 L133.80 82.67 L131.76 80.00 L130.97 77.00 L129.00 74.59 L128.11 72.33 L128.12 71.33 Z M292.26 193.33 L293.00 193.14 L293.67 193.34 L295.67 195.14 L298.33 196.47 L306.08 203.33 L309.33 205.82 L311.67 207.19 L321.67 216.82 L327.33 220.92 L333.01 226.00 L334.33 227.56 L338.52 231.00 L342.38 235.33 L346.83 239.33 L350.67 243.49 L351.91 244.33 L357.52 249.67 L358.85 251.33 L360.34 252.33 L363.00 254.81 L366.89 259.33 L368.19 260.33 L374.81 267.33 L378.64 270.67 L385.06 277.67 L389.33 281.80 L390.67 283.60 L392.00 284.62 L395.99 289.00 L402.89 295.67 L404.22 298.00 L406.67 300.97 L412.06 307.33 L413.33 308.40 L414.66 310.33 L418.67 314.45 L422.67 319.97 L427.81 326.00 L429.33 327.40 L430.67 329.61 L432.00 331.14 L433.11 333.33 L437.64 338.67 L438.67 341.11 L445.33 349.33 L446.44 352.33 L448.19 354.33 L450.60 358.00 L451.92 360.67 L453.67 362.61 L454.67 365.11 L458.85 371.00 L459.83 373.67 L461.67 375.86 L462.67 378.58 L464.00 380.11 L465.00 382.04 L466.71 384.33 L467.76 387.33 L469.51 389.33 L470.48 392.67 L472.18 394.67 L472.83 397.33 L474.89 399.67 L475.99 403.00 L477.67 404.99 L478.33 408.20 L480.26 410.67 L480.81 413.67 L482.71 416.67 L483.98 421.00 L485.67 423.52 L486.45 427.00 L488.15 429.67 L489.08 434.67 L490.73 437.00 L491.84 441.67 L493.67 444.98 L494.41 450.33 L496.12 453.33 L497.04 459.33 L498.98 464.00 L499.88 472.33 L501.67 477.03 L502.28 489.00 L502.67 491.08 L503.85 494.67 L504.43 498.67 L504.61 518.00 L504.19 528.67 L503.80 531.00 L502.58 534.67 L502.09 538.33 L501.77 544.67 L500.88 549.00 L499.62 552.33 L499.05 557.33 L497.14 560.67 L496.23 565.33 L494.33 568.02 L493.63 571.67 L492.00 574.11 L490.68 578.33 L489.00 580.43 L488.00 583.58 L486.33 586.15 L485.45 589.33 L484.00 591.49 L482.64 594.67 L481.18 596.33 L478.48 600.33 L477.46 603.33 L475.99 604.67 L471.98 611.00 L470.40 612.33 L467.00 616.15 L466.33 616.54 L465.33 616.25 L464.85 615.00 L464.24 599.67 L462.43 591.33 L461.74 578.33 L459.91 572.00 L459.06 557.00 L457.09 551.00 L456.37 540.67 L454.39 535.00 L453.65 525.67 L451.81 520.33 L451.15 514.33 L449.00 508.90 L448.26 501.00 L446.42 497.00 L445.76 490.67 L443.82 486.33 L442.72 480.33 L441.09 477.33 L440.31 472.00 L438.38 468.33 L437.67 463.58 L435.74 460.33 L435.12 456.00 L433.08 452.00 L432.17 447.00 L430.29 443.67 L429.53 438.00 L427.85 435.33 L426.76 431.00 L425.07 428.33 L424.10 424.00 L422.33 421.62 L421.77 418.33 L419.98 415.33 L419.00 411.40 L417.04 408.00 L416.12 404.33 L414.66 402.00 L413.47 398.33 L411.92 396.00 L410.76 392.33 L409.05 389.67 L408.20 386.33 L406.35 384.00 L405.60 380.67 L403.92 378.67 L402.90 375.00 L401.33 372.65 L400.17 369.33 L398.53 366.67 L397.56 363.33 L395.95 361.00 L394.71 357.33 L393.07 355.33 L391.99 352.00 L390.33 349.76 L389.65 346.67 L387.78 344.33 L386.79 341.33 L385.10 339.33 L384.01 336.33 L382.33 334.03 L381.58 332.00 L380.12 330.00 L378.67 326.82 L377.33 325.26 L376.26 322.33 L374.54 320.33 L373.55 317.33 L371.81 315.33 L370.67 312.02 L369.06 310.00 L368.10 308.00 L366.67 306.14 L365.40 303.33 L363.78 301.67 L362.67 298.77 L361.33 297.24 L359.92 294.67 L358.47 293.00 L357.44 290.67 L356.00 289.06 L354.62 286.67 L353.38 285.33 L352.07 282.33 L350.67 280.86 L349.46 278.67 L348.02 277.00 L346.93 274.67 L345.00 272.38 L341.38 266.33 L340.33 265.30 L338.71 262.67 L337.49 261.33 L336.00 258.43 L334.67 257.05 L333.42 255.00 L331.98 253.67 L330.51 250.67 L326.33 245.83 L325.40 244.00 L320.22 236.67 L318.40 235.00 L317.33 232.82 L314.90 229.00 L313.04 227.33 L310.71 224.33 L309.33 221.39 L305.06 216.00 L302.49 212.33 L301.46 210.33 L299.90 208.67 L298.90 206.67 L297.33 204.48 L296.33 202.17 L294.67 200.41 L293.33 197.99 L291.75 196.00 L291.49 194.67 L292.26 193.33 Z M555.83 625.33 L560.67 625.16 L561.67 625.91 L561.98 627.00 L562.01 668.33 L561.78 670.33 L561.00 672.28 L550.67 682.31 L549.56 683.67 L542.67 690.01 L541.33 691.64 L534.33 697.98 L531.00 701.68 L529.00 703.34 L519.67 712.66 L512.67 718.57 L508.33 723.03 L503.00 727.06 L501.33 728.91 L495.33 733.90 L492.79 735.33 L490.88 737.00 L487.33 738.81 L484.11 741.67 L481.67 743.11 L478.67 745.79 L477.40 747.33 L476.67 747.73 L475.00 747.51 L474.32 746.67 L476.10 741.67 L477.59 739.67 L478.33 737.76 L480.00 735.46 L481.24 733.00 L483.00 731.17 L484.07 729.00 L485.33 727.26 L486.42 724.67 L488.11 723.00 L489.21 720.67 L491.00 718.17 L491.87 716.33 L493.33 714.60 L494.41 711.67 L496.30 709.33 L497.12 706.67 L498.87 704.67 L500.13 701.67 L501.47 700.00 L502.33 698.17 L503.98 696.33 L505.17 693.00 L506.90 691.00 L507.93 688.00 L509.67 685.93 L510.46 684.00 L512.00 681.86 L513.33 678.71 L517.33 673.57 L518.63 671.00 L520.04 669.33 L520.43 668.33 L520.49 667.00 L520.01 665.67 L519.33 665.01 L518.33 664.84 L510.67 665.55 L500.00 667.53 L480.33 668.32 L473.33 669.91 L470.00 670.39 L455.00 670.88 L452.67 671.23 L447.33 672.86 L431.67 673.74 L428.00 675.24 L426.33 675.57 L423.00 675.36 L420.33 675.79 L407.67 676.33 L405.00 677.18 L399.33 678.21 L389.33 679.08 L383.33 681.01 L374.33 681.77 L369.00 683.59 L357.67 684.25 L352.00 686.31 L345.00 687.14 L341.00 688.90 L332.67 689.59 L326.67 691.61 L318.93 692.33 L315.33 694.07 L306.67 695.14 L302.67 697.09 L295.00 697.34 L292.33 697.69 L287.33 699.65 L280.33 700.39 L276.67 702.12 L268.70 703.00 L263.88 705.00 L258.33 705.87 L253.74 707.67 L247.67 708.37 L244.67 709.91 L238.33 710.88 L233.33 712.81 L225.33 713.84 L221.35 715.67 L216.02 716.67 L213.33 718.19 L206.67 718.87 L202.33 720.93 L196.67 721.71 L193.72 723.33 L192.33 723.75 L186.67 724.35 L183.33 725.96 L178.07 727.00 L173.58 729.00 L167.00 729.66 L163.33 731.53 L157.85 732.33 L154.00 734.20 L148.67 735.07 L145.33 736.89 L139.67 737.66 L135.67 739.75 L130.55 740.33 L127.33 742.21 L121.67 742.91 L117.45 745.00 L112.67 745.74 L109.00 747.58 L104.00 748.45 L101.33 750.08 L97.33 751.04 L94.00 752.83 L87.67 753.98 L84.67 755.66 L80.33 756.19 L75.00 757.99 L70.00 758.90 L68.33 758.74 L67.74 758.00 L67.82 757.00 L68.37 756.33 L72.67 753.84 L75.33 752.67 L77.33 751.09 L79.67 750.28 L82.00 748.53 L85.00 747.46 L86.87 746.00 L89.67 744.86 L95.67 740.59 L99.67 739.58 L102.00 737.90 L104.67 736.83 L107.67 735.15 L110.33 734.27 L113.00 732.53 L117.00 731.51 L119.00 729.82 L122.00 728.97 L124.67 727.01 L127.33 726.22 L129.67 724.53 L133.52 723.67 L136.33 721.92 L140.33 720.88 L142.67 719.21 L146.67 718.05 L148.67 716.59 L153.33 715.65 L156.67 713.61 L161.00 712.89 L164.33 710.91 L167.67 710.20 L170.00 708.53 L175.00 707.58 L177.33 705.91 L181.98 705.00 L184.67 703.32 L189.00 702.04 L191.67 700.56 L197.00 699.61 L199.33 698.19 L200.67 697.71 L205.67 696.98 L209.33 695.01 L213.67 694.13 L216.67 692.45 L221.28 691.67 L224.13 690.00 L229.00 688.94 L232.33 687.12 L238.33 686.19 L241.33 684.41 L245.91 683.67 L249.33 681.75 L254.67 680.77 L258.00 679.04 L262.67 678.21 L265.67 676.47 L270.67 675.59 L274.33 673.81 L280.33 672.99 L284.67 670.97 L290.67 670.24 L294.67 668.29 L302.12 667.67 L305.67 665.78 L311.67 664.99 L316.00 662.99 L321.33 662.13 L324.67 660.37 L331.33 659.61 L334.67 658.01 L336.00 657.69 L343.30 657.00 L348.00 654.88 L354.67 654.24 L359.00 652.39 L366.00 651.67 L370.67 649.78 L378.00 648.99 L380.00 648.34 L382.67 646.95 L390.00 646.26 L394.02 644.67 L396.00 644.22 L404.67 643.43 L408.67 641.91 L419.33 640.94 L424.00 639.12 L434.33 638.38 L438.97 637.00 L442.00 636.46 L455.00 635.59 L459.75 634.00 L462.33 633.52 L474.67 633.08 L479.33 631.66 L482.67 631.07 L497.67 630.28 L505.83 628.33 L534.00 627.29 L543.00 625.87 L555.83 625.33 Z" fill="url(#navigateWealthIconOnlyPrimaryGradient)" fill-rule="evenodd" clip-rule="evenodd" />
</svg>
