<?xml version="1.0" encoding="UTF-8"?>
<svg xmlns="http://www.w3.org/2000/svg" width="1704" height="448" viewBox="0 0 1704 448" fill="none" shape-rendering="geometricPrecision">
  <defs></defs>
  <path d="M1419.63 125.00 L1421.00 124.98 L1422.20 125.67 L1423.33 127.44 L1423.85 129.33 L1422.87 136.33 L1423.05 167.67 L1422.86 201.33 L1423.16 218.00 L1422.98 236.00 L1423.05 242.67 L1423.51 246.33 L1423.40 253.67 L1423.79 264.00 L1424.79 271.00 L1425.32 272.67 L1426.71 274.33 L1428.67 277.47 L1434.77 282.67 L1435.15 283.33 L1435.14 284.33 L1434.05 286.33 L1431.33 287.22 L1408.00 287.15 L1404.67 286.87 L1390.33 287.10 L1387.67 286.87 L1386.67 286.61 L1385.90 286.00 L1385.59 285.00 L1385.79 283.67 L1388.67 280.75 L1391.33 279.12 L1392.12 278.33 L1393.33 275.72 L1394.87 273.33 L1395.37 270.00 L1395.37 150.67 L1395.04 148.67 L1394.44 147.33 L1391.43 144.67 L1390.00 143.86 L1387.00 142.82 L1384.15 141.00 L1381.74 140.00 L1381.08 139.33 L1381.03 138.67 L1382.33 136.77 L1383.67 135.89 L1389.33 135.05 L1394.67 133.10 L1399.33 132.42 L1403.33 130.50 L1408.67 129.58 L1412.00 127.74 L1415.67 127.01 L1417.83 125.67 L1419.63 125.00 Z M1551.60 125.00 L1553.33 124.88 L1554.67 125.32 L1555.33 126.33 L1555.54 127.67 L1555.29 190.00 L1555.35 194.33 L1555.75 195.67 L1556.67 196.42 L1557.67 196.31 L1559.67 194.45 L1562.33 193.08 L1570.00 186.49 L1572.67 185.51 L1574.67 183.76 L1577.67 182.96 L1580.33 181.22 L1582.00 180.76 L1588.33 180.43 L1595.67 180.46 L1601.67 180.94 L1603.00 181.47 L1605.00 182.81 L1609.33 184.12 L1611.58 185.67 L1613.67 186.57 L1616.07 188.67 L1619.85 193.33 L1621.44 194.67 L1622.55 197.67 L1624.17 200.00 L1624.59 201.67 L1625.18 207.33 L1626.55 210.67 L1627.01 212.67 L1627.35 225.00 L1627.34 267.00 L1627.66 272.33 L1628.16 273.33 L1629.33 274.39 L1630.33 275.89 L1633.33 278.80 L1636.86 281.33 L1639.67 282.68 L1640.07 283.67 L1639.94 284.67 L1639.39 286.00 L1638.67 286.68 L1636.00 287.17 L1628.33 286.78 L1618.00 287.03 L1605.67 286.51 L1596.67 286.88 L1591.67 286.45 L1588.33 286.53 L1586.67 285.94 L1585.33 284.76 L1584.87 283.33 L1585.53 282.00 L1588.67 280.14 L1591.67 279.10 L1592.86 278.33 L1595.05 276.33 L1597.33 273.69 L1597.88 272.33 L1598.11 267.00 L1598.00 216.00 L1597.33 211.45 L1595.84 209.33 L1594.89 206.00 L1592.12 202.67 L1588.00 199.99 L1585.00 198.71 L1583.06 197.33 L1581.67 196.92 L1579.67 196.81 L1573.67 197.44 L1567.00 199.98 L1565.67 201.34 L1563.50 202.67 L1558.38 208.00 L1557.33 210.65 L1556.17 212.67 L1555.62 214.67 L1555.35 218.33 L1555.30 240.67 L1555.48 261.67 L1555.79 266.33 L1557.63 272.00 L1558.51 275.67 L1561.39 278.67 L1564.75 280.00 L1566.33 281.67 L1567.79 282.67 L1568.45 284.00 L1567.88 286.00 L1566.93 286.67 L1565.00 287.03 L1554.67 286.98 L1549.00 286.53 L1536.00 286.88 L1524.33 286.56 L1519.67 286.94 L1518.12 286.67 L1517.32 286.00 L1516.99 284.67 L1517.32 283.33 L1523.13 278.33 L1525.47 275.00 L1526.11 271.67 L1526.84 255.67 L1526.62 247.67 L1526.55 161.67 L1526.14 150.33 L1525.51 147.00 L1522.00 144.10 L1519.00 142.49 L1517.53 141.33 L1513.67 140.09 L1513.04 139.33 L1512.91 138.33 L1513.67 136.94 L1515.33 135.96 L1516.67 135.61 L1523.33 134.93 L1527.67 132.84 L1535.00 132.14 L1538.00 130.34 L1541.67 129.72 L1545.00 127.85 L1548.67 126.87 L1551.60 125.00 Z M491.96 130.33 L496.00 130.10 L499.67 130.39 L501.00 130.87 L502.67 132.02 L505.67 133.25 L506.57 134.00 L509.48 137.67 L510.67 139.66 L512.00 141.17 L512.56 142.67 L513.16 149.67 L512.66 155.33 L512.00 157.83 L509.34 161.33 L508.04 162.33 L506.67 164.01 L503.00 165.49 L500.33 166.99 L492.33 167.50 L488.00 167.19 L486.33 166.69 L484.33 165.33 L481.67 164.07 L478.71 161.33 L477.47 158.33 L475.98 156.33 L475.46 155.00 L475.28 150.00 L475.54 145.00 L476.14 143.33 L477.43 141.33 L478.33 138.81 L484.67 133.01 L487.67 132.07 L490.33 130.71 L491.96 130.33 Z M101.83 135.33 L121.67 135.10 L124.33 135.35 L125.67 136.09 L128.00 138.47 L132.03 144.33 L134.67 147.62 L139.73 153.33 L141.34 154.67 L144.01 158.33 L145.18 160.67 L150.54 167.00 L152.01 168.33 L156.00 174.36 L157.34 175.67 L158.67 177.54 L160.00 178.58 L165.33 184.34 L169.29 190.33 L178.67 200.39 L181.33 203.80 L182.67 206.08 L185.33 209.32 L186.67 210.37 L189.33 213.32 L196.01 222.33 L197.33 223.68 L198.33 225.37 L200.09 227.00 L202.87 230.67 L204.22 233.00 L206.45 235.33 L207.33 235.82 L207.92 235.67 L208.33 235.18 L208.81 233.33 L208.67 160.00 L208.20 155.00 L207.77 153.67 L206.35 151.33 L205.53 149.33 L203.03 146.67 L200.83 145.33 L199.33 144.02 L196.33 143.01 L194.00 141.26 L190.33 140.15 L188.58 137.67 L188.67 136.69 L190.00 135.71 L192.33 135.38 L239.67 135.27 L241.67 135.51 L243.00 136.35 L243.44 137.33 L243.48 138.33 L242.67 139.99 L241.67 140.49 L239.67 140.76 L238.67 141.18 L237.33 142.76 L234.63 144.00 L230.89 146.67 L228.33 149.41 L227.64 150.67 L226.95 153.33 L225.61 155.67 L224.97 158.67 L224.59 170.33 L224.59 283.33 L224.22 285.67 L223.33 286.94 L221.33 287.45 L212.00 287.33 L208.81 286.33 L206.00 284.34 L200.00 277.38 L198.44 276.00 L197.33 274.41 L196.00 273.34 L193.40 270.33 L187.00 261.66 L182.48 257.00 L181.33 254.86 L178.64 251.33 L170.75 242.33 L169.22 241.00 L166.64 237.33 L165.41 235.00 L153.51 222.33 L149.33 216.34 L142.67 208.91 L138.40 203.00 L129.39 193.00 L125.00 187.01 L121.33 183.16 L117.38 178.33 L116.21 177.33 L114.45 174.00 L112.00 170.90 L111.33 170.54 L110.67 170.77 L110.21 171.67 L110.07 179.00 L110.35 221.67 L110.62 228.00 L110.45 248.67 L110.73 257.33 L111.29 261.33 L113.10 269.33 L115.89 273.67 L118.33 276.08 L122.92 278.67 L124.33 279.25 L127.67 279.89 L130.73 282.33 L131.09 283.00 L131.09 284.00 L130.60 285.00 L129.33 286.28 L127.00 287.05 L112.33 285.78 L108.33 286.01 L102.33 285.58 L87.67 285.97 L84.67 286.62 L81.67 285.34 L79.67 283.88 L79.38 283.33 L79.54 282.33 L81.00 280.20 L82.33 279.47 L85.33 278.62 L89.28 275.67 L93.22 271.33 L93.91 270.00 L94.55 267.00 L95.78 265.33 L96.23 264.00 L96.54 260.00 L96.64 237.67 L96.46 160.67 L96.11 158.33 L94.38 155.33 L93.73 152.33 L91.00 149.14 L88.33 146.60 L86.37 145.33 L85.00 143.86 L82.00 142.99 L79.33 140.92 L76.67 140.26 L75.62 139.00 L75.17 137.33 L75.94 136.00 L77.67 135.38 L101.83 135.33 Z M1186.17 135.67 L1192.67 135.53 L1195.00 135.89 L1196.33 136.55 L1197.20 137.33 L1197.72 138.33 L1197.67 139.33 L1197.00 140.19 L1193.67 142.58 L1190.67 143.74 L1186.67 147.91 L1184.67 149.57 L1182.33 152.26 L1181.61 154.00 L1179.93 156.33 L1178.68 159.33 L1177.02 162.00 L1176.15 166.00 L1174.32 169.00 L1173.52 174.00 L1171.67 177.17 L1170.91 183.00 L1169.02 186.33 L1168.09 190.67 L1166.34 193.33 L1165.37 199.33 L1163.71 202.33 L1162.88 206.33 L1160.98 210.00 L1160.27 214.33 L1158.39 217.67 L1157.72 222.00 L1155.87 225.00 L1154.86 230.00 L1152.93 233.00 L1152.14 237.67 L1150.25 240.67 L1149.63 245.00 L1147.52 248.67 L1146.83 254.00 L1145.00 257.52 L1144.22 261.67 L1142.33 265.06 L1141.53 269.67 L1139.75 272.33 L1138.83 277.33 L1137.21 280.33 L1136.58 283.67 L1135.33 285.92 L1134.00 286.87 L1132.67 287.23 L1125.00 286.83 L1120.00 286.95 L1118.78 286.33 L1116.02 283.00 L1115.56 281.67 L1115.02 278.00 L1113.10 275.33 L1112.17 270.67 L1110.33 267.65 L1109.67 261.48 L1107.77 258.00 L1106.81 253.67 L1105.00 250.85 L1104.24 246.33 L1102.42 243.00 L1101.67 238.02 L1099.67 233.73 L1099.00 229.74 L1096.97 226.00 L1096.18 221.00 L1094.27 217.67 L1093.62 213.33 L1091.85 210.33 L1091.13 206.33 L1090.38 204.67 L1089.21 203.00 L1088.09 198.00 L1086.33 195.38 L1085.91 192.33 L1085.33 191.69 L1084.67 191.55 L1083.60 192.33 L1082.67 194.52 L1081.19 196.67 L1080.66 198.33 L1080.30 201.00 L1078.33 203.48 L1077.58 208.33 L1075.74 211.00 L1074.88 215.67 L1073.10 219.00 L1072.17 224.00 L1070.49 227.33 L1069.50 232.33 L1067.78 234.67 L1066.87 239.33 L1065.16 242.33 L1064.18 246.33 L1062.49 249.33 L1061.57 255.67 L1059.71 258.67 L1058.84 263.33 L1057.00 266.28 L1056.07 270.33 L1054.38 273.00 L1053.41 278.33 L1052.13 280.67 L1051.33 283.57 L1050.53 285.00 L1048.00 287.82 L1046.67 288.42 L1041.67 287.49 L1034.67 287.14 L1033.33 286.39 L1030.37 283.33 L1029.79 280.00 L1027.91 276.67 L1026.99 272.67 L1025.01 269.67 L1024.15 264.33 L1022.52 261.33 L1021.52 257.33 L1019.85 254.67 L1018.99 250.67 L1017.25 248.00 L1016.19 242.67 L1014.33 239.44 L1013.65 235.33 L1011.88 233.00 L1010.94 228.33 L1009.00 225.31 L1008.18 220.67 L1006.33 217.52 L1005.59 213.33 L1003.84 210.67 L1002.94 206.00 L1001.14 203.33 L1000.02 198.67 L998.33 195.85 L997.58 190.33 L995.86 187.33 L994.71 182.67 L992.98 179.67 L992.42 176.33 L990.45 172.67 L989.67 168.56 L987.86 165.67 L986.94 161.00 L985.15 157.67 L984.15 154.00 L982.67 151.93 L981.42 149.33 L978.68 146.67 L975.67 145.37 L973.67 143.76 L966.67 140.11 L965.87 139.00 L965.44 137.33 L966.00 136.28 L968.00 135.69 L983.67 135.88 L1025.00 135.69 L1028.33 135.82 L1029.33 136.10 L1030.08 136.67 L1030.34 137.33 L1030.24 138.33 L1029.33 140.04 L1025.51 141.33 L1020.63 145.33 L1017.67 147.24 L1017.15 148.33 L1016.77 150.33 L1016.93 153.33 L1017.52 155.00 L1019.00 157.60 L1019.86 161.67 L1021.59 164.67 L1022.33 169.73 L1024.18 173.33 L1024.85 177.33 L1026.36 180.33 L1027.01 182.33 L1027.74 187.33 L1029.63 190.67 L1030.33 195.33 L1032.09 198.33 L1033.08 203.33 L1034.86 206.33 L1035.80 211.33 L1037.67 213.98 L1038.31 218.00 L1040.33 221.67 L1040.95 225.67 L1043.00 229.35 L1043.78 233.67 L1045.67 237.69 L1046.81 244.33 L1047.87 246.33 L1048.69 247.00 L1049.67 247.30 L1050.33 247.17 L1051.00 246.48 L1052.01 243.00 L1053.67 240.75 L1054.40 236.67 L1056.24 233.00 L1057.11 227.67 L1058.96 224.33 L1059.86 218.67 L1061.66 215.33 L1062.33 210.67 L1064.10 207.67 L1065.08 202.67 L1066.89 199.67 L1067.79 195.00 L1069.60 192.33 L1070.35 187.33 L1072.28 184.00 L1072.98 178.33 L1075.08 174.00 L1075.74 168.67 L1076.94 164.00 L1076.06 160.00 L1075.15 152.67 L1073.10 149.67 L1072.00 147.14 L1071.05 146.33 L1068.33 145.40 L1066.97 144.00 L1064.67 142.62 L1063.33 141.44 L1060.59 140.00 L1059.99 138.67 L1060.17 138.00 L1061.00 137.05 L1062.67 136.24 L1064.33 136.06 L1081.67 136.21 L1106.67 135.77 L1114.67 135.98 L1116.33 136.51 L1117.27 137.33 L1117.42 138.67 L1116.89 139.67 L1113.67 140.98 L1111.67 142.93 L1105.24 147.00 L1104.14 149.67 L1104.15 152.33 L1104.87 155.67 L1106.33 158.52 L1106.91 160.33 L1107.79 166.33 L1109.67 169.56 L1110.32 174.33 L1112.30 177.67 L1113.07 184.00 L1115.02 187.33 L1115.82 192.67 L1117.67 195.31 L1118.32 200.00 L1120.14 203.33 L1121.07 208.33 L1122.88 211.00 L1123.88 216.00 L1125.67 218.98 L1126.40 224.33 L1128.11 227.33 L1128.91 232.00 L1129.36 233.33 L1130.72 235.67 L1131.93 241.33 L1134.33 245.94 L1135.33 246.44 L1136.26 245.33 L1137.33 241.26 L1138.94 238.00 L1139.99 232.67 L1141.63 229.67 L1142.33 224.65 L1144.27 221.33 L1144.92 216.67 L1147.10 212.00 L1147.87 206.00 L1149.38 203.33 L1150.34 199.67 L1152.34 195.67 L1153.04 190.67 L1155.05 186.33 L1155.86 179.67 L1157.67 176.40 L1158.33 170.58 L1159.96 167.00 L1160.60 163.67 L1160.94 154.67 L1160.65 150.67 L1160.00 148.60 L1158.03 146.33 L1154.67 144.01 L1150.33 142.93 L1145.67 140.04 L1144.85 138.67 L1145.03 137.33 L1146.00 136.32 L1148.33 135.80 L1166.00 135.96 L1186.17 135.67 Z M789.45 149.00 L790.67 148.85 L791.81 149.33 L792.42 150.33 L792.70 152.00 L792.53 181.00 L793.07 182.67 L794.00 183.27 L795.33 183.48 L821.67 183.70 L822.85 184.00 L823.67 184.59 L824.47 186.67 L824.52 193.00 L823.33 194.46 L821.33 195.51 L818.00 195.36 L814.67 195.62 L811.67 195.29 L807.00 195.29 L803.67 194.71 L799.67 194.81 L796.33 194.45 L794.32 195.00 L793.48 195.67 L792.93 196.67 L792.57 198.67 L792.73 257.33 L793.09 260.00 L795.00 264.27 L795.70 267.33 L798.67 271.24 L800.95 273.33 L802.33 273.90 L808.00 274.11 L818.33 273.79 L820.52 273.33 L823.67 271.84 L825.67 271.53 L827.67 271.94 L828.12 272.33 L828.46 273.33 L827.45 276.67 L826.33 278.47 L823.67 279.96 L821.67 281.65 L819.96 282.33 L817.67 283.93 L814.55 285.00 L811.14 287.00 L807.33 287.76 L804.33 287.87 L797.33 289.29 L793.67 289.31 L783.33 288.27 L777.00 286.89 L774.67 285.29 L772.33 284.13 L770.79 282.33 L769.53 281.33 L768.00 278.18 L766.33 275.99 L765.56 272.67 L763.93 269.67 L763.45 266.33 L763.41 199.00 L763.14 196.00 L762.67 194.99 L761.33 194.29 L759.33 194.09 L750.33 194.22 L747.00 193.56 L746.21 193.00 L745.86 192.33 L746.36 189.67 L747.44 187.00 L750.67 184.17 L752.00 183.63 L759.67 183.11 L761.33 182.36 L762.40 181.33 L763.34 179.33 L763.39 168.67 L763.66 166.67 L764.33 165.36 L765.00 164.95 L767.33 164.41 L769.67 162.38 L772.77 161.33 L780.33 154.54 L783.00 153.40 L784.67 151.94 L789.45 149.00 Z M1478.08 154.00 L1479.33 154.14 L1480.25 154.67 L1480.87 155.67 L1481.04 156.67 L1481.28 160.67 L1480.95 166.33 L1480.85 181.00 L1481.01 182.00 L1481.65 183.00 L1482.67 183.47 L1484.33 183.69 L1500.00 183.55 L1509.00 183.80 L1510.33 184.61 L1511.56 186.33 L1512.02 187.67 L1512.23 189.67 L1512.14 192.00 L1511.75 193.00 L1510.67 193.87 L1508.33 194.83 L1497.67 195.44 L1490.33 195.51 L1484.33 194.71 L1482.22 195.33 L1481.52 196.00 L1481.08 197.00 L1480.85 198.67 L1480.70 255.67 L1481.31 261.33 L1483.49 267.00 L1484.06 268.00 L1486.67 270.86 L1489.67 273.17 L1491.00 273.72 L1496.67 274.19 L1503.33 274.05 L1508.00 273.75 L1512.33 272.91 L1513.67 273.31 L1514.01 274.33 L1513.33 275.78 L1510.93 277.67 L1508.00 280.95 L1504.67 282.54 L1502.65 284.00 L1498.33 285.16 L1495.33 287.05 L1490.33 287.53 L1486.33 288.81 L1482.67 288.99 L1480.00 288.84 L1474.00 287.55 L1468.33 287.10 L1463.33 284.54 L1462.51 284.00 L1461.33 282.54 L1460.00 281.64 L1457.56 279.00 L1456.90 278.00 L1455.96 275.33 L1454.58 273.33 L1454.10 271.33 L1453.04 260.67 L1453.19 202.00 L1453.46 197.67 L1452.67 195.96 L1450.69 194.67 L1449.08 194.33 L1442.33 194.06 L1440.33 193.54 L1439.33 192.48 L1438.96 190.67 L1439.17 188.00 L1440.06 186.67 L1445.00 184.11 L1448.00 183.73 L1450.00 183.17 L1451.06 182.33 L1453.00 179.94 L1453.59 178.33 L1453.58 173.67 L1454.07 169.33 L1454.67 168.14 L1457.33 165.56 L1460.67 163.90 L1462.33 162.43 L1464.31 161.33 L1465.73 160.00 L1468.33 158.69 L1470.33 157.15 L1472.98 156.00 L1475.09 154.67 L1478.08 154.00 Z M631.58 178.00 L639.67 178.09 L641.33 178.64 L642.13 179.33 L642.66 180.67 L643.11 184.00 L643.01 192.33 L642.68 193.33 L642.00 193.97 L639.33 194.89 L636.33 194.04 L629.31 193.67 L626.00 191.98 L623.33 191.43 L618.67 191.60 L617.33 192.19 L616.61 193.00 L616.31 194.33 L616.54 195.33 L618.67 197.41 L621.37 201.33 L622.49 205.33 L624.18 208.33 L624.98 216.67 L624.99 221.33 L624.20 229.00 L622.23 232.33 L621.51 235.33 L620.00 236.95 L618.64 239.00 L616.01 241.67 L614.58 242.67 L613.48 244.00 L609.73 247.00 L606.33 249.38 L602.67 250.63 L600.00 252.28 L591.67 253.80 L589.00 254.78 L587.33 255.08 L564.33 255.84 L559.67 257.83 L558.67 258.61 L558.13 260.33 L557.92 263.67 L558.10 265.00 L558.76 266.00 L561.39 267.67 L564.00 268.37 L574.00 268.69 L596.00 268.58 L607.33 268.94 L613.00 269.74 L616.67 270.93 L622.00 271.66 L623.00 272.04 L625.00 273.58 L628.83 274.67 L635.33 279.78 L637.33 281.77 L637.87 282.67 L638.67 285.62 L640.01 287.67 L640.48 289.00 L640.54 294.67 L640.22 299.33 L638.52 302.67 L637.67 305.42 L635.98 307.67 L634.89 310.67 L632.16 313.67 L624.00 321.38 L621.51 322.67 L620.00 323.83 L616.67 325.18 L614.00 326.87 L610.00 327.83 L607.05 329.67 L602.67 330.37 L599.67 331.98 L598.00 332.38 L575.00 332.95 L557.67 332.34 L556.33 332.05 L553.33 330.51 L548.33 329.58 L545.95 328.00 L542.65 327.00 L540.33 325.13 L537.33 324.05 L532.59 320.00 L530.67 317.34 L529.00 315.75 L526.64 312.33 L526.02 307.33 L526.30 300.00 L526.80 298.67 L528.01 297.00 L529.01 293.67 L530.86 291.33 L532.32 288.33 L535.67 285.64 L538.35 284.33 L539.17 283.33 L538.76 282.33 L536.78 280.67 L534.67 277.43 L534.25 276.33 L533.76 272.00 L533.94 268.00 L534.33 266.74 L535.90 265.33 L539.89 260.67 L542.33 258.75 L545.33 257.54 L548.33 255.56 L550.94 255.00 L551.43 254.67 L551.66 254.00 L551.33 253.14 L549.33 250.79 L545.36 249.33 L538.86 243.67 L534.67 239.03 L533.33 236.09 L531.73 233.67 L530.94 230.00 L529.12 226.33 L528.75 223.00 L528.95 214.00 L529.60 211.67 L530.98 209.33 L531.67 205.67 L533.48 203.33 L534.37 200.33 L540.00 194.34 L545.67 189.20 L548.67 188.07 L550.64 186.33 L552.99 185.33 L555.00 184.04 L560.21 183.00 L564.67 180.99 L578.00 180.34 L589.67 180.78 L592.33 181.32 L596.33 183.12 L600.00 183.67 L603.67 185.53 L605.67 185.85 L607.33 185.51 L609.37 184.00 L612.54 182.67 L615.00 181.19 L619.00 180.10 L622.33 178.60 L624.67 178.22 L631.58 178.00 Z M686.06 180.33 L690.67 180.23 L707.33 180.88 L709.00 181.32 L712.02 183.00 L717.33 183.89 L719.67 185.50 L722.33 186.47 L725.61 189.33 L730.83 194.67 L733.36 198.67 L733.95 200.33 L734.33 203.65 L736.00 206.93 L736.49 210.00 L736.51 267.67 L736.85 272.33 L737.34 273.33 L739.92 276.00 L740.67 276.43 L741.67 276.50 L743.67 276.07 L746.33 276.27 L750.00 275.40 L751.33 275.92 L752.10 277.33 L751.86 279.00 L749.94 281.33 L748.32 282.33 L746.33 284.14 L744.01 285.33 L742.00 286.78 L740.33 287.26 L734.67 287.48 L727.00 288.66 L722.67 288.18 L717.00 286.91 L713.33 284.33 L711.84 282.33 L710.63 281.33 L710.14 280.33 L709.71 277.67 L709.10 276.33 L707.67 274.51 L706.00 274.08 L704.66 274.67 L700.86 279.00 L698.67 280.18 L697.00 281.48 L695.00 282.42 L693.33 284.08 L690.33 285.16 L687.67 286.98 L682.00 287.84 L679.00 289.24 L676.67 289.19 L672.67 289.62 L669.67 289.53 L668.33 289.27 L665.00 287.88 L660.33 287.18 L658.33 286.34 L654.67 284.13 L653.33 282.61 L651.38 281.33 L649.32 279.33 L646.24 275.67 L645.33 272.98 L644.19 271.33 L643.69 270.00 L643.07 266.33 L641.82 261.67 L641.80 258.67 L644.08 249.33 L645.33 247.65 L646.67 244.93 L647.93 243.67 L649.67 241.15 L652.67 238.06 L657.33 234.63 L661.33 233.55 L663.67 231.90 L668.67 230.93 L671.33 228.91 L676.33 228.33 L679.00 226.32 L685.00 225.63 L689.00 223.74 L695.00 222.87 L698.67 221.02 L705.33 220.24 L706.50 219.67 L707.15 218.67 L707.43 215.33 L707.00 209.46 L705.24 205.67 L704.42 203.00 L698.33 196.97 L694.77 194.67 L693.00 194.13 L683.67 194.00 L680.00 194.54 L677.33 196.16 L673.62 197.00 L671.33 198.84 L668.67 199.73 L666.97 201.33 L660.67 205.06 L658.92 206.67 L654.67 209.58 L653.00 210.01 L651.00 210.09 L649.67 209.75 L649.00 209.02 L648.70 207.33 L648.71 201.33 L649.20 198.67 L651.93 194.67 L653.93 193.33 L657.67 189.22 L660.04 188.00 L662.00 186.50 L665.15 185.33 L667.38 184.00 L671.67 183.09 L676.00 181.07 L686.06 180.33 Z M279.50 180.67 L284.67 180.46 L303.33 180.79 L305.83 181.33 L309.33 182.91 L314.33 183.66 L317.33 185.50 L320.90 186.67 L325.00 189.24 L328.20 192.33 L330.62 196.00 L332.01 200.33 L333.73 203.00 L334.22 208.67 L334.64 224.33 L334.25 260.00 L334.50 267.67 L335.00 269.52 L336.70 273.00 L340.33 276.47 L342.33 277.02 L349.33 276.63 L350.33 276.83 L351.01 277.33 L351.15 278.67 L350.02 281.00 L346.12 284.00 L343.00 285.18 L341.44 286.67 L340.33 287.18 L335.33 287.50 L329.00 288.47 L326.67 288.44 L318.00 287.08 L316.67 286.55 L313.00 283.90 L310.42 281.00 L309.44 277.67 L307.67 275.19 L306.68 274.33 L305.67 274.24 L304.67 274.77 L300.99 278.67 L298.67 279.91 L296.33 281.65 L294.67 282.42 L293.00 284.17 L290.00 285.09 L287.33 287.13 L282.00 287.66 L277.67 289.13 L275.67 289.47 L267.25 289.00 L259.00 286.83 L255.85 285.00 L253.00 283.93 L249.29 281.00 L246.67 277.32 L245.40 274.67 L244.00 273.25 L242.87 269.33 L241.56 266.67 L241.04 262.67 L241.44 259.00 L242.64 255.33 L243.74 250.00 L244.32 248.67 L246.67 245.13 L248.01 244.00 L249.28 242.33 L253.66 238.67 L254.67 237.44 L258.00 236.01 L260.33 234.26 L263.67 233.58 L266.33 231.80 L271.00 230.99 L273.67 229.07 L279.67 228.20 L284.00 226.24 L289.56 225.67 L292.67 223.65 L299.33 222.87 L305.33 220.57 L306.33 219.90 L306.87 219.00 L307.02 218.00 L306.76 215.67 L305.02 209.33 L304.54 206.33 L303.81 204.67 L302.42 203.00 L301.65 200.67 L298.00 197.25 L295.00 195.98 L293.33 194.69 L292.00 194.22 L285.33 193.91 L280.33 194.50 L277.67 196.08 L274.67 197.06 L271.33 198.82 L268.67 199.59 L266.67 201.46 L264.33 202.54 L262.33 204.02 L260.33 205.03 L258.67 206.78 L254.67 209.54 L251.33 210.08 L250.00 209.80 L249.31 209.33 L248.76 207.33 L248.83 198.67 L249.24 197.33 L250.66 195.33 L251.46 193.00 L252.12 192.00 L256.00 189.36 L258.77 188.00 L260.67 186.38 L263.67 185.76 L266.67 183.95 L273.67 181.95 L276.07 181.00 L279.50 180.67 Z M507.17 180.67 L508.33 180.73 L509.33 181.32 L509.79 182.33 L509.99 184.00 L509.93 258.00 L510.33 269.37 L510.90 271.67 L513.00 276.30 L514.87 278.33 L517.33 280.10 L518.53 281.33 L521.00 282.51 L522.06 283.33 L522.68 284.67 L522.59 286.00 L522.11 286.67 L521.40 287.00 L519.33 287.22 L509.33 287.20 L503.67 286.53 L490.33 286.53 L485.67 286.25 L470.67 286.96 L469.00 286.78 L468.23 286.33 L467.49 285.00 L467.26 283.67 L467.72 282.33 L470.67 279.89 L474.33 278.89 L477.40 276.00 L478.69 273.00 L480.01 271.00 L480.65 267.33 L480.57 203.67 L480.17 202.33 L478.67 200.47 L477.30 197.33 L474.33 196.01 L470.12 193.33 L469.83 192.33 L470.17 191.00 L470.96 189.67 L471.67 189.22 L476.67 188.20 L479.64 186.67 L484.33 185.89 L487.64 185.67 L491.67 183.77 L498.33 182.93 L502.00 181.07 L507.17 180.67 Z M877.83 180.67 L895.00 180.75 L897.21 181.00 L898.67 181.47 L901.50 183.00 L906.00 183.75 L908.67 185.63 L911.33 186.34 L920.06 194.33 L922.83 197.33 L924.04 199.33 L925.26 200.67 L926.28 203.67 L928.13 206.00 L929.00 210.19 L930.67 213.09 L931.21 215.00 L931.96 229.33 L931.28 232.33 L930.67 233.15 L929.60 233.67 L927.33 233.91 L862.33 233.94 L860.67 234.21 L859.76 235.00 L859.49 236.67 L860.02 241.33 L861.69 245.67 L862.28 250.33 L864.00 252.90 L865.31 256.00 L867.80 259.67 L870.67 262.93 L873.67 265.56 L876.33 266.62 L878.67 268.24 L882.00 269.07 L885.00 270.62 L887.00 271.08 L895.33 271.37 L903.67 271.26 L907.33 270.64 L910.67 269.12 L915.00 268.12 L917.23 266.67 L920.35 265.67 L922.04 264.33 L923.33 263.75 L927.67 262.72 L929.00 262.91 L929.39 263.33 L929.39 265.00 L928.00 267.94 L922.99 273.33 L921.33 274.55 L916.82 279.00 L913.00 281.22 L910.06 282.33 L908.00 283.85 L904.00 285.15 L901.33 286.80 L895.67 287.62 L893.00 288.75 L889.67 288.40 L886.33 289.25 L883.67 289.38 L880.33 289.03 L873.67 287.73 L866.00 287.18 L864.00 286.58 L861.33 285.06 L858.00 284.23 L855.33 282.27 L852.66 281.67 L849.11 278.67 L845.33 274.62 L843.69 273.33 L838.67 267.66 L837.75 264.33 L835.88 261.67 L835.00 256.93 L833.34 254.00 L832.81 252.00 L832.23 245.33 L831.91 235.33 L832.88 220.00 L833.29 218.67 L834.88 216.33 L835.96 212.33 L837.58 210.00 L838.33 207.51 L839.77 205.33 L841.06 202.67 L842.67 201.14 L844.16 198.67 L847.13 195.00 L850.33 192.25 L852.73 190.67 L854.33 189.17 L856.30 188.00 L858.00 186.50 L861.00 185.66 L863.33 183.80 L868.33 182.82 L871.33 180.99 L877.83 180.67 Z M1222.17 180.67 L1238.67 180.91 L1242.00 182.79 L1247.00 183.70 L1249.67 185.66 L1253.00 186.56 L1257.07 190.67 L1258.76 192.00 L1260.17 193.67 L1261.52 194.67 L1264.19 197.67 L1266.67 201.08 L1267.83 203.67 L1269.57 205.67 L1270.39 209.33 L1271.76 211.33 L1272.26 212.67 L1273.82 222.33 L1273.91 227.33 L1273.70 229.33 L1272.91 232.00 L1272.33 233.00 L1271.33 233.72 L1267.67 233.93 L1205.67 233.90 L1203.67 234.19 L1202.46 235.00 L1202.34 235.67 L1203.06 237.67 L1203.95 244.67 L1205.71 248.33 L1206.31 252.00 L1207.91 254.33 L1208.94 257.00 L1210.79 258.67 L1214.34 262.67 L1217.34 265.33 L1220.67 266.64 L1223.00 268.47 L1227.00 269.40 L1231.00 270.98 L1245.33 271.19 L1249.00 270.34 L1252.31 269.00 L1257.00 268.07 L1260.00 266.32 L1263.00 265.50 L1265.00 264.01 L1268.42 262.67 L1270.33 261.32 L1271.00 261.26 L1271.67 261.65 L1271.92 262.67 L1271.73 264.00 L1269.49 267.67 L1264.00 273.47 L1262.67 274.43 L1261.33 276.09 L1258.41 278.67 L1254.33 281.43 L1251.91 282.33 L1249.74 284.00 L1246.33 284.95 L1243.67 286.62 L1241.67 287.17 L1231.00 288.31 L1226.33 288.49 L1210.67 287.06 L1209.00 286.45 L1207.23 285.33 L1203.67 284.24 L1201.33 282.64 L1198.67 281.65 L1196.90 280.00 L1193.86 278.33 L1189.95 274.67 L1188.29 273.67 L1185.34 270.00 L1184.20 267.33 L1182.34 265.33 L1181.41 262.67 L1179.85 260.33 L1179.12 256.67 L1177.55 254.33 L1176.94 252.67 L1176.27 246.00 L1175.45 241.00 L1175.16 233.67 L1176.91 219.67 L1177.33 218.42 L1178.87 216.00 L1180.00 211.88 L1181.65 209.67 L1182.33 207.65 L1184.00 205.12 L1185.13 202.67 L1186.67 201.22 L1188.33 198.79 L1192.52 194.67 L1197.33 190.81 L1199.00 189.02 L1201.33 187.87 L1202.96 186.67 L1206.00 185.55 L1208.67 183.87 L1213.14 182.67 L1216.67 181.27 L1218.33 180.88 L1222.17 180.67 Z M1317.71 180.67 L1328.00 180.51 L1337.33 180.82 L1340.33 181.19 L1344.00 182.87 L1349.00 183.87 L1351.00 185.53 L1354.33 186.57 L1359.06 190.67 L1362.00 192.41 L1362.73 193.33 L1363.76 195.67 L1365.54 197.67 L1366.48 201.00 L1367.93 202.67 L1368.31 203.67 L1369.44 215.67 L1369.74 221.33 L1369.58 232.00 L1369.85 237.33 L1369.53 251.33 L1369.86 259.00 L1369.78 267.67 L1371.27 274.33 L1372.27 276.00 L1374.00 276.62 L1380.33 276.77 L1381.67 277.60 L1382.06 279.00 L1381.93 281.00 L1380.73 283.00 L1379.67 283.89 L1371.67 286.88 L1367.67 287.52 L1362.00 287.79 L1359.00 288.58 L1351.67 287.25 L1350.67 286.80 L1348.00 284.17 L1346.84 282.33 L1345.36 280.67 L1344.89 279.33 L1344.18 274.67 L1343.67 273.95 L1342.67 273.61 L1340.33 274.57 L1334.44 280.00 L1333.33 281.46 L1329.67 284.12 L1326.33 285.09 L1323.33 286.81 L1318.67 287.58 L1316.00 288.82 L1311.33 289.47 L1309.00 289.43 L1303.67 287.66 L1298.00 287.08 L1297.00 286.62 L1295.33 285.23 L1292.67 284.34 L1289.00 281.34 L1286.71 279.00 L1285.33 276.86 L1283.89 275.33 L1282.94 272.33 L1281.33 269.65 L1280.71 267.33 L1280.47 259.00 L1280.90 253.00 L1281.55 251.00 L1282.94 249.00 L1283.92 245.67 L1285.49 244.00 L1286.53 242.33 L1289.00 239.74 L1295.38 234.33 L1299.35 233.67 L1302.65 231.67 L1307.33 230.86 L1310.33 229.05 L1315.00 228.17 L1318.28 226.33 L1324.33 225.49 L1328.67 223.76 L1333.33 222.99 L1340.33 220.84 L1341.36 220.33 L1342.00 219.44 L1342.18 218.00 L1341.66 209.33 L1341.33 208.33 L1339.86 206.00 L1339.07 202.67 L1333.67 197.01 L1330.50 194.67 L1329.33 194.24 L1322.33 193.98 L1316.67 194.45 L1313.80 196.00 L1311.00 196.99 L1309.00 198.93 L1306.33 200.01 L1304.57 201.33 L1302.67 202.25 L1301.00 204.04 L1298.00 205.42 L1292.67 209.62 L1291.00 209.98 L1289.00 209.90 L1287.67 209.44 L1286.86 208.67 L1286.35 207.33 L1286.14 205.33 L1286.08 200.67 L1286.56 198.67 L1289.18 194.67 L1293.33 190.96 L1294.68 189.33 L1298.33 186.53 L1301.67 185.62 L1304.35 184.00 L1309.33 182.87 L1313.67 181.10 L1317.71 180.67 Z M424.42 183.00 L430.67 182.86 L439.33 183.33 L463.00 183.08 L465.67 183.82 L466.36 184.33 L466.50 185.00 L466.23 185.67 L464.00 188.06 L460.00 190.69 L457.37 192.00 L454.63 194.33 L453.41 196.00 L451.96 197.33 L449.15 201.67 L448.12 204.33 L446.41 207.00 L445.51 210.00 L443.81 212.67 L442.80 216.33 L440.95 218.67 L440.07 222.00 L438.30 224.67 L437.67 227.47 L435.77 230.00 L435.07 233.00 L433.08 235.33 L432.12 239.00 L430.53 241.33 L429.54 245.00 L427.69 248.00 L426.83 251.00 L425.00 253.62 L424.22 257.00 L422.39 259.33 L421.67 262.59 L419.90 265.00 L418.86 269.00 L416.78 272.33 L416.09 275.33 L414.47 277.33 L413.63 280.67 L411.83 282.67 L410.67 285.79 L409.33 287.05 L407.00 287.84 L402.33 287.62 L398.67 287.89 L394.67 287.27 L393.17 286.33 L392.00 283.09 L390.38 281.33 L389.66 278.00 L387.78 275.67 L386.94 272.33 L385.33 270.18 L384.16 266.67 L382.51 264.33 L381.61 259.67 L379.84 257.33 L378.86 254.33 L376.95 251.67 L376.26 248.67 L374.42 246.00 L373.69 242.67 L372.00 240.13 L370.69 235.67 L369.04 233.33 L368.00 229.54 L366.33 227.35 L365.78 224.33 L363.71 222.00 L362.92 218.67 L361.12 216.00 L360.16 211.67 L358.34 209.33 L357.66 205.67 L355.99 203.33 L355.05 200.67 L351.80 196.67 L347.00 191.88 L345.67 191.04 L343.67 190.36 L342.67 189.63 L340.33 186.68 L340.02 185.00 L340.63 184.00 L341.33 183.62 L344.33 183.24 L392.67 183.34 L394.33 183.63 L395.33 184.30 L395.74 185.67 L395.00 187.51 L391.33 190.60 L388.61 192.00 L387.84 193.00 L387.36 196.33 L387.53 200.33 L388.00 201.53 L389.59 203.67 L390.47 208.67 L392.09 210.67 L393.00 214.52 L394.84 217.00 L395.94 221.33 L397.81 224.33 L398.35 227.33 L400.20 230.00 L401.00 233.65 L402.66 236.00 L403.96 239.67 L405.67 242.32 L406.22 246.33 L408.19 249.67 L408.96 253.67 L409.67 254.61 L411.00 254.92 L412.33 254.55 L413.33 253.23 L414.24 248.33 L416.40 244.00 L417.04 240.67 L418.90 237.67 L419.75 233.00 L421.67 230.43 L422.41 226.67 L424.10 224.33 L425.24 220.33 L427.02 217.33 L427.84 213.00 L429.67 209.67 L430.34 203.33 L432.02 200.33 L431.82 196.67 L429.67 192.00 L426.67 189.45 L424.00 187.99 L420.55 185.33 L420.42 184.67 L421.00 183.94 L422.67 183.26 L424.42 183.00 Z M574.77 192.33 L576.33 192.12 L578.33 192.26 L582.67 193.65 L586.00 194.20 L589.67 197.16 L592.28 200.00 L594.94 203.67 L595.79 209.33 L597.29 214.67 L597.38 219.33 L595.81 224.67 L595.19 229.67 L594.67 231.42 L593.33 233.52 L592.26 236.00 L589.67 239.05 L586.97 241.67 L583.67 244.08 L582.33 244.50 L578.00 244.70 L573.00 244.50 L571.71 244.00 L569.33 242.40 L566.97 241.67 L563.91 238.67 L561.30 235.33 L560.23 232.33 L558.53 229.67 L558.04 227.67 L557.78 216.00 L558.13 209.67 L558.53 208.00 L560.07 205.33 L561.20 201.33 L564.18 197.33 L567.32 194.67 L572.00 193.47 L574.77 192.33 Z M883.17 193.33 L885.33 193.04 L892.00 194.51 L895.88 197.00 L899.00 200.12 L901.44 203.67 L902.48 208.67 L903.94 212.33 L904.47 218.00 L904.00 219.81 L903.33 220.44 L902.33 220.83 L896.67 220.97 L889.67 221.79 L884.67 222.09 L872.00 222.01 L863.67 222.98 L862.33 222.55 L861.08 220.67 L860.67 219.17 L861.78 216.67 L862.42 211.67 L864.13 209.33 L864.84 206.33 L865.33 205.39 L866.99 203.67 L868.97 200.67 L872.67 197.13 L876.00 194.47 L877.33 194.00 L883.17 193.33 Z M1225.25 193.67 L1232.00 193.97 L1235.00 194.87 L1237.62 196.67 L1240.00 199.36 L1241.33 201.33 L1242.86 202.67 L1243.96 206.33 L1245.33 208.62 L1245.71 210.00 L1246.14 218.33 L1245.64 220.33 L1244.67 221.23 L1243.33 221.47 L1239.00 221.47 L1226.00 222.36 L1220.00 222.47 L1212.33 222.14 L1206.67 223.01 L1205.67 222.96 L1204.67 222.53 L1204.00 221.65 L1203.60 220.33 L1203.63 217.67 L1205.51 213.00 L1206.39 208.67 L1208.00 206.14 L1209.16 203.00 L1213.33 198.83 L1214.67 197.12 L1218.27 194.67 L1220.33 194.03 L1225.25 193.67 Z M703.20 231.67 L705.00 231.41 L706.33 231.67 L707.12 232.33 L707.54 233.67 L707.22 258.00 L707.04 259.33 L706.33 260.85 L703.14 265.33 L700.33 266.37 L698.00 268.24 L694.67 269.12 L692.00 270.58 L689.33 271.20 L684.00 271.33 L681.33 271.09 L679.67 270.49 L676.17 267.67 L673.67 264.73 L672.96 263.33 L672.57 261.00 L672.38 254.67 L672.70 250.67 L673.27 248.67 L676.00 244.84 L678.13 242.67 L680.33 241.50 L682.33 240.02 L685.33 238.95 L687.67 237.09 L692.33 236.09 L695.15 234.33 L700.00 233.55 L703.20 231.67 Z M302.17 233.67 L304.00 233.54 L306.00 234.08 L306.80 234.67 L307.22 236.00 L307.00 245.83 L306.42 253.67 L305.14 258.33 L304.59 262.00 L303.75 263.67 L302.00 265.44 L300.00 266.49 L298.00 268.14 L294.67 269.04 L292.00 270.42 L289.67 271.06 L285.67 271.31 L282.67 271.14 L280.67 270.45 L279.02 269.33 L276.33 268.15 L273.08 264.67 L272.00 261.76 L270.73 259.33 L270.52 258.00 L270.93 255.67 L272.85 250.67 L274.76 248.00 L275.99 245.67 L277.67 244.06 L278.67 242.66 L282.75 240.00 L286.00 238.95 L289.33 237.09 L293.67 236.07 L296.67 234.44 L302.17 233.67 Z M1339.04 233.67 L1340.33 233.51 L1341.33 233.83 L1342.00 234.57 L1342.26 235.67 L1341.95 259.00 L1341.31 261.33 L1338.33 265.42 L1334.33 268.01 L1331.62 269.00 L1328.33 270.76 L1326.00 271.24 L1320.33 271.45 L1318.67 271.27 L1317.14 270.67 L1313.33 268.11 L1312.00 266.59 L1310.33 265.36 L1307.66 260.00 L1307.41 258.00 L1307.70 254.33 L1308.26 252.67 L1309.44 250.67 L1310.33 247.95 L1313.14 244.67 L1318.67 239.81 L1321.67 238.71 L1324.33 236.99 L1329.00 236.08 L1332.48 234.33 L1339.04 233.67 Z M558.60 287.67 L560.33 287.41 L574.00 287.49 L577.67 287.86 L582.00 288.95 L601.00 290.14 L603.56 290.67 L606.33 292.21 L608.85 293.00 L610.04 293.67 L610.95 294.67 L612.27 297.00 L613.53 298.33 L614.00 300.00 L613.90 307.33 L613.58 308.00 L611.93 309.67 L610.33 312.83 L606.51 316.00 L604.33 317.18 L602.00 318.93 L597.00 319.88 L593.33 321.63 L587.67 322.01 L575.00 321.89 L572.33 321.50 L568.00 319.92 L563.52 319.00 L558.67 316.23 L555.90 313.67 L553.10 308.00 L552.40 305.33 L552.28 301.67 L552.67 296.67 L553.16 294.67 L556.00 289.63 L557.00 288.62 L558.60 287.67 Z" fill="#ffffff" fill-rule="evenodd" clip-rule="evenodd" />
</svg>
