<svg xmlns="http://www.w3.org/2000/svg" viewBox="0 0 1400 360" role="img" aria-label="Navigate Wealth monochrome logo">
  <g transform="translate(36 30)">
    <path d="M97 218c31-71 35-133 0-188 71 44 107 121 111 188-27-18-53-13-111 0Z" fill="#1e293b"/>
    <path d="M203 196c4-55-15-103-63-153 46 32 79 79 84 138-5 6-12 10-21 15Z" fill="#1e293b"/>
    <path d="M41 239c58-27 120-40 223-42-29 29-49 49-71 61 14-23 21-36 21-45 0-8-5-10-13-10-44 0-105 10-160 36Z" fill="#1e293b"/>
  </g>

  <g transform="translate(332 88)">
    <text x="0" y="82" fill="#1e293b" font-family="Georgia, 'Times New Roman', serif" font-size="102" letter-spacing="1.2" font-weight="700">
      Navigate
    </text>
    <text x="612" y="82" fill="#1e293b" font-family="'Segoe UI', Arial, sans-serif" font-size="82" letter-spacing="5" font-weight="700">
      WEALTH
    </text>
    <rect x="2" y="112" width="878" height="3.5" rx="1.75" fill="#1e293b" opacity="0.25"/>
    <text x="2" y="162" fill="#1e293b" font-family="'Segoe UI', Arial, sans-serif" font-size="28" letter-spacing="6" font-weight="600">
      INDEPENDENT FINANCIAL ADVISORY SERVICES
    </text>
  </g>
</svg>
